<?xml version="1.0" encoding="utf-8"?>
<!-- Generator: Adobe Illustrator 15.0.2, SVG Export Plug-In . SVG Version: 6.00 Build 0)  -->
<!DOCTYPE svg PUBLIC "-//W3C//DTD SVG 1.1//EN" "http://www.w3.org/Graphics/SVG/1.1/DTD/svg11.dtd">
<svg version="1.1" id="Ebene_1" xmlns="http://www.w3.org/2000/svg" xmlns:xlink="http://www.w3.org/1999/xlink" viewBox="0 0 218.833 42.167" enable-background="new 0 0 218.833 42.167"
	 xml:space="preserve">
<g>
	<path fill="#3A525B" d="M71.667,16.484l-4.385-8.678l-4.065,8.678H71.667z M65.951,2.539h2.733L80.87,26.64h-3.982l-3.622-7.102
		H61.672l-3.395,7.102h-3.998L65.951,2.539z"/>
	<path fill="#3A525B" d="M94.232,5.73H89.37v17.822h4.979c1.945,0,3.455-0.117,4.532-0.352c1.076-0.234,1.975-0.533,2.693-0.893
		c0.721-0.359,1.379-0.805,1.976-1.33c1.919-1.713,2.879-3.881,2.879-6.5c0-2.572-0.986-4.67-2.957-6.295
		c-0.727-0.605-1.56-1.104-2.499-1.492c-0.941-0.389-1.833-0.646-2.675-0.771C97.455,5.792,96.101,5.73,94.232,5.73 M85.479,26.605
		V2.677h9.162c3.696,0,6.621,0.488,8.773,1.467c2.152,0.977,3.864,2.416,5.136,4.313c1.271,1.9,1.906,3.969,1.906,6.209
		c0,1.604-0.351,3.135-1.051,4.6c-0.699,1.463-1.698,2.748-2.995,3.857c-1.322,1.145-2.859,2.008-4.61,2.59
		c-1.025,0.355-1.965,0.594-2.821,0.713c-0.855,0.119-2.49,0.18-4.902,0.18H85.479z"/>
	<polygon fill="#3A525B" points="116.116,2.677 131.521,2.677 131.521,5.73 120.006,5.73 120.006,13.037 131.133,13.037 
		131.133,16.109 120.006,16.109 120.006,23.552 131.892,23.552 131.892,26.605 116.116,26.605 	"/>
	<polygon fill="#3A525B" points="159.221,2.677 162.917,2.677 162.917,26.638 159.571,26.638 141.402,8.183 141.402,26.638 
		137.746,26.638 137.746,2.677 140.897,2.677 159.221,21.289 	"/>
	<path fill="#3A525B" d="M176.26,16.599l-2.956-1.584c-1.854-0.998-3.174-1.98-3.958-2.947c-0.785-0.965-1.178-2.078-1.178-3.336
		c0-1.887,0.742-3.418,2.228-4.598c1.484-1.178,3.414-1.766,5.787-1.766c2.27,0,4.351,0.561,6.243,1.684v3.895
		c-1.958-1.66-4.064-2.49-6.32-2.49c-1.272,0-2.315,0.258-3.132,0.777c-0.817,0.518-1.227,1.182-1.227,1.988
		c0,0.719,0.301,1.391,0.903,2.018c0.602,0.627,1.57,1.285,2.903,1.973l2.972,1.551c3.313,1.746,4.972,3.969,4.972,6.666
		c0,1.922-0.729,3.482-2.188,4.684s-3.355,1.801-5.689,1.801c-2.685,0-5.13-0.727-7.334-2.182v-4.357
		c2.102,2.346,4.532,3.521,7.294,3.521c1.219,0,2.234-0.301,3.045-0.898s1.215-1.348,1.215-2.248
		C179.839,19.291,178.646,17.908,176.26,16.599"/>
	<path fill="#3A525B" d="M202.462,5.593c-3.109,0-5.665,0.857-7.667,2.572s-3.003,3.906-3.003,6.57c0,2.584,1.004,4.734,3.013,6.449
		s4.522,2.572,7.541,2.572c3.031,0,5.562-0.875,7.589-2.625c2.027-1.748,3.042-3.928,3.042-6.535c0-2.539-1.015-4.674-3.042-6.406
		S205.415,5.593,202.462,5.593 M202.307,2.333c4.198,0,7.694,1.172,10.487,3.516s4.189,5.285,4.189,8.818s-1.409,6.457-4.229,8.771
		c-2.818,2.316-6.372,3.475-10.661,3.475c-4.097,0-7.508-1.158-10.235-3.475c-2.729-2.314-4.092-5.217-4.092-8.703
		c0-3.58,1.373-6.543,4.121-8.887C194.635,3.505,198.107,2.333,202.307,2.333"/>
	<path fill="#3A525B" d="M56.982,36.406h2.141l-0.093-1.764c-0.011-0.24-0.021-0.541-0.027-0.902
		c-0.008-0.361-0.011-0.623-0.011-0.783h-0.061L56.982,36.406z M58.499,39.363l0.061-0.27c0.163-0.014,0.293-0.061,0.386-0.143
		c0.094-0.08,0.159-0.191,0.197-0.334c0.038-0.141,0.058-0.33,0.058-0.564c0-0.141-0.006-0.297-0.016-0.465l-0.039-0.705h-2.409
		l-0.301,0.537c-0.143,0.25-0.246,0.467-0.313,0.648c-0.066,0.18-0.099,0.34-0.099,0.479c0,0.307,0.185,0.488,0.553,0.547
		l-0.06,0.27h-2.239l0.06-0.27c0.113-0.014,0.221-0.059,0.32-0.133c0.101-0.076,0.208-0.188,0.321-0.34
		c0.112-0.152,0.271-0.402,0.476-0.754l3.509-6.066h0.827l0.395,6.105c0.019,0.289,0.052,0.514,0.099,0.676
		c0.048,0.162,0.112,0.283,0.194,0.361c0.082,0.08,0.201,0.129,0.358,0.15l-0.06,0.27H58.499z"/>
	<path fill="#3A525B" d="M65.332,36.027c0.055-0.262,0.082-0.51,0.082-0.744c0-0.283-0.06-0.49-0.18-0.621
		c-0.121-0.129-0.322-0.193-0.604-0.193c-0.152,0-0.299,0.023-0.438,0.074c-0.139,0.049-0.279,0.131-0.421,0.244
		c-0.144,0.115-0.279,0.268-0.408,0.453c-0.13,0.186-0.248,0.412-0.354,0.68c-0.105,0.266-0.188,0.551-0.247,0.855
		c-0.058,0.305-0.088,0.602-0.088,0.889c0,0.381,0.053,0.664,0.157,0.854c0.104,0.188,0.278,0.281,0.522,0.281
		c0.113,0,0.23-0.025,0.354-0.076c0.122-0.051,0.258-0.146,0.408-0.283c0.148-0.137,0.319-0.338,0.509-0.604
		c0.171-0.244,0.308-0.486,0.408-0.727c0.1-0.238,0.183-0.521,0.249-0.846L65.332,36.027z M66.011,33.076
		c0.029-0.119,0.056-0.254,0.077-0.398c0.021-0.146,0.032-0.273,0.032-0.383s-0.02-0.193-0.06-0.25s-0.099-0.098-0.173-0.123
		s-0.209-0.043-0.402-0.055l0.065-0.283l1.374-0.051h0.323l-1.418,6.307c-0.051,0.23-0.085,0.402-0.104,0.516
		s-0.027,0.207-0.027,0.285c0,0.148,0.042,0.258,0.126,0.326c0.084,0.066,0.244,0.109,0.481,0.127l-0.05,0.27h-1.564l0.344-1.375
		l-0.071-0.021c-0.35,0.51-0.682,0.885-0.996,1.123c-0.313,0.236-0.646,0.355-0.997,0.355c-0.4,0-0.712-0.152-0.933-0.455
		s-0.332-0.729-0.332-1.275c0-0.352,0.041-0.701,0.121-1.055c0.08-0.352,0.202-0.686,0.364-1.002
		c0.163-0.314,0.356-0.594,0.583-0.834s0.487-0.434,0.786-0.574c0.297-0.143,0.62-0.215,0.972-0.215
		c0.222,0,0.428,0.023,0.616,0.068c0.187,0.047,0.38,0.125,0.577,0.238L66.011,33.076z"/>
	<path fill="#3A525B" d="M72.236,34.128l0.147,0.273c-0.135,0.324-0.237,0.564-0.309,0.723c-0.072,0.158-0.169,0.354-0.291,0.588
		c-0.122,0.236-0.259,0.484-0.41,0.742c-0.152,0.26-0.324,0.537-0.518,0.832c-0.193,0.297-0.413,0.621-0.659,0.975
		c-0.247,0.355-0.536,0.75-0.868,1.189h-0.684l-0.511-4.135c-0.032-0.266-0.067-0.457-0.106-0.572
		c-0.038-0.115-0.094-0.199-0.167-0.252s-0.188-0.084-0.345-0.096l0.061-0.268h1.407L69.4,38.48
		c0.628-0.863,1.093-1.594,1.396-2.184c0.304-0.592,0.455-1.072,0.455-1.441c0-0.17-0.037-0.287-0.109-0.35
		c-0.073-0.061-0.197-0.098-0.372-0.109l0.055-0.268H72.236z"/>
	<path fill="#3A525B" d="M76.31,36.029c0.033-0.15,0.056-0.281,0.066-0.389c0.011-0.111,0.016-0.229,0.016-0.357
		c0-0.285-0.06-0.492-0.18-0.621c-0.121-0.129-0.322-0.193-0.604-0.193c-0.152,0-0.299,0.023-0.438,0.072
		c-0.138,0.049-0.279,0.131-0.421,0.246c-0.144,0.115-0.279,0.268-0.408,0.453c-0.13,0.186-0.247,0.412-0.354,0.678
		c-0.105,0.268-0.188,0.553-0.246,0.857s-0.088,0.602-0.088,0.891c0,0.379,0.053,0.662,0.156,0.852
		c0.104,0.188,0.278,0.281,0.523,0.281c0.112,0,0.229-0.025,0.353-0.076c0.122-0.053,0.258-0.146,0.408-0.283
		c0.149-0.137,0.319-0.338,0.509-0.605c0.171-0.244,0.308-0.484,0.408-0.725c0.1-0.238,0.183-0.521,0.249-0.846L76.31,36.029z
		 M76.792,34.396l0.504-0.361l0.35,0.088l-0.838,3.717c-0.051,0.221-0.085,0.389-0.104,0.508c-0.019,0.117-0.027,0.215-0.027,0.293
		c0,0.148,0.042,0.258,0.126,0.324c0.084,0.068,0.244,0.111,0.482,0.129l-0.051,0.27H75.67l0.344-1.375l-0.071-0.021
		c-0.35,0.512-0.682,0.885-0.996,1.121c-0.313,0.238-0.646,0.357-0.996,0.357c-0.401,0-0.713-0.152-0.934-0.455
		s-0.332-0.729-0.332-1.275c0-0.352,0.041-0.701,0.121-1.055c0.08-0.352,0.202-0.686,0.364-1.002
		c0.163-0.314,0.356-0.594,0.583-0.834c0.227-0.242,0.487-0.434,0.786-0.576c0.298-0.141,0.621-0.213,0.972-0.213
		c0.226,0,0.442,0.027,0.646,0.08C76.36,34.167,76.572,34.261,76.792,34.396"/>
	<path fill="#3A525B" d="M83.285,39.363h-1.725l0.695-2.781c0.043-0.18,0.086-0.377,0.128-0.592s0.063-0.408,0.063-0.58
		c0-0.26-0.044-0.445-0.134-0.559c-0.089-0.113-0.229-0.17-0.419-0.17c-0.153,0-0.318,0.059-0.495,0.178
		c-0.178,0.119-0.362,0.295-0.557,0.531c-0.192,0.234-0.356,0.475-0.489,0.717c-0.134,0.244-0.236,0.539-0.31,0.885l-0.498,2.371
		h-0.948l0.834-3.74c0.018-0.084,0.041-0.209,0.073-0.373c0.03-0.164,0.046-0.301,0.046-0.41c0-0.102-0.016-0.182-0.046-0.238
		c-0.032-0.057-0.085-0.098-0.159-0.125s-0.201-0.047-0.381-0.059l0.066-0.289l1.243-0.049h0.312l-0.367,1.422l0.066,0.023
		c0.357-0.504,0.702-0.877,1.034-1.121c0.333-0.242,0.665-0.363,0.997-0.363c0.354,0,0.622,0.098,0.805,0.293
		c0.182,0.195,0.274,0.484,0.274,0.867c0,0.131-0.013,0.275-0.036,0.43c-0.024,0.156-0.05,0.293-0.079,0.414l-0.46,1.949
		c-0.063,0.262-0.093,0.471-0.093,0.623c0,0.111,0.018,0.197,0.054,0.258c0.037,0.063,0.093,0.109,0.17,0.143
		s0.203,0.059,0.378,0.076L83.285,39.363z"/>
	<path fill="#3A525B" d="M88.146,35.443c-0.007-0.279-0.029-0.479-0.067-0.604c-0.039-0.123-0.102-0.217-0.187-0.279
		c-0.086-0.063-0.208-0.094-0.365-0.094c-0.367,0-0.699,0.148-0.992,0.441c-0.294,0.295-0.534,0.711-0.721,1.25
		c-0.186,0.537-0.279,1.055-0.279,1.551c0,0.154,0.014,0.297,0.042,0.432c0.026,0.137,0.073,0.252,0.142,0.352
		c0.067,0.098,0.157,0.176,0.269,0.232s0.253,0.084,0.424,0.084c0.332,0,0.62-0.063,0.862-0.188c0.242-0.127,0.499-0.324,0.77-0.594
		l0.334,0.334c-0.343,0.379-0.689,0.656-1.038,0.832c-0.348,0.174-0.723,0.262-1.125,0.262c-0.529,0-0.93-0.156-1.204-0.471
		c-0.273-0.313-0.411-0.77-0.411-1.367c0-0.393,0.073-0.82,0.219-1.287c0.146-0.467,0.36-0.879,0.642-1.232s0.608-0.619,0.984-0.795
		c0.377-0.174,0.778-0.262,1.205-0.262c0.292,0,0.547,0.016,0.765,0.049c0.217,0.033,0.409,0.072,0.577,0.115l-0.269,1.238H88.146z"
		/>
	<path fill="#3A525B" d="M90.392,36.537c0.336-0.004,0.63-0.021,0.884-0.057c0.255-0.035,0.473-0.082,0.655-0.143
		s0.334-0.133,0.454-0.217c0.121-0.084,0.216-0.176,0.287-0.275c0.072-0.102,0.121-0.207,0.148-0.318s0.041-0.227,0.041-0.348
		c0-0.223-0.053-0.396-0.155-0.523c-0.105-0.125-0.259-0.188-0.463-0.188c-0.257,0-0.507,0.092-0.753,0.275
		c-0.246,0.186-0.465,0.434-0.652,0.744C90.649,35.8,90.502,36.15,90.392,36.537 M93.305,38.273c-0.27,0.295-0.53,0.529-0.778,0.701
		c-0.247,0.17-0.495,0.293-0.743,0.367c-0.248,0.072-0.522,0.107-0.821,0.107c-0.289,0-0.537-0.045-0.745-0.139
		s-0.381-0.221-0.517-0.383c-0.138-0.162-0.239-0.357-0.305-0.58c-0.065-0.225-0.099-0.469-0.099-0.732
		c0-0.391,0.07-0.809,0.211-1.256s0.354-0.848,0.638-1.205c0.285-0.355,0.626-0.631,1.023-0.826s0.822-0.293,1.271-0.293
		c0.441,0,0.773,0.09,0.994,0.27c0.221,0.178,0.331,0.457,0.331,0.836c0,0.621-0.291,1.086-0.873,1.396
		c-0.583,0.311-1.446,0.467-2.593,0.467c-0.044,0.219-0.066,0.455-0.066,0.711c0,0.383,0.075,0.662,0.226,0.836
		c0.148,0.172,0.394,0.258,0.732,0.258c0.336,0,0.642-0.072,0.915-0.217c0.273-0.146,0.561-0.371,0.859-0.674L93.305,38.273z"/>
	<path fill="#3A525B" d="M98.057,36.027c0.055-0.262,0.082-0.51,0.082-0.744c0-0.283-0.06-0.49-0.18-0.621
		c-0.121-0.129-0.322-0.193-0.604-0.193c-0.152,0-0.299,0.023-0.438,0.074c-0.138,0.049-0.279,0.131-0.421,0.244
		c-0.144,0.115-0.279,0.268-0.408,0.453c-0.13,0.186-0.248,0.412-0.353,0.68c-0.106,0.266-0.189,0.551-0.247,0.855
		c-0.059,0.305-0.089,0.602-0.089,0.889c0,0.381,0.053,0.664,0.157,0.854c0.104,0.188,0.278,0.281,0.522,0.281
		c0.113,0,0.23-0.025,0.354-0.076c0.122-0.051,0.258-0.146,0.408-0.283c0.149-0.137,0.319-0.338,0.509-0.604
		c0.171-0.244,0.308-0.486,0.408-0.727c0.1-0.238,0.183-0.521,0.249-0.846L98.057,36.027z M98.736,33.076
		c0.028-0.119,0.055-0.254,0.076-0.398c0.021-0.146,0.032-0.273,0.032-0.383s-0.02-0.193-0.06-0.25s-0.099-0.098-0.172-0.123
		c-0.075-0.025-0.209-0.043-0.403-0.055l0.065-0.283l1.374-0.051h0.323l-1.418,6.307c-0.051,0.23-0.086,0.402-0.104,0.516
		c-0.019,0.113-0.027,0.207-0.027,0.285c0,0.148,0.042,0.258,0.126,0.326c0.084,0.066,0.244,0.109,0.481,0.127l-0.05,0.27h-1.564
		l0.344-1.375l-0.071-0.021c-0.35,0.51-0.682,0.885-0.996,1.123c-0.313,0.236-0.646,0.355-0.996,0.355
		c-0.401,0-0.713-0.152-0.934-0.455s-0.332-0.729-0.332-1.275c0-0.352,0.041-0.701,0.121-1.055c0.08-0.352,0.202-0.686,0.364-1.002
		c0.162-0.314,0.356-0.594,0.583-0.834s0.488-0.434,0.786-0.574c0.297-0.143,0.621-0.215,0.972-0.215
		c0.222,0,0.428,0.023,0.615,0.068c0.188,0.047,0.381,0.125,0.578,0.238L98.736,33.076z"/>
	<path fill="#3A525B" d="M109.019,31.888l-0.378,1.682h-0.526c-0.01-0.264-0.03-0.469-0.061-0.617
		c-0.028-0.146-0.062-0.256-0.098-0.328c-0.037-0.07-0.079-0.123-0.126-0.158c-0.048-0.035-0.107-0.061-0.178-0.074
		c-0.071-0.014-0.173-0.021-0.305-0.021h-1.784l-0.624,2.869h1.046c0.16,0,0.294-0.021,0.401-0.066
		c0.108-0.043,0.207-0.119,0.3-0.227c0.091-0.107,0.192-0.273,0.306-0.496h0.498l-0.493,2.104h-0.465
		c0-0.201-0.007-0.35-0.022-0.445c-0.014-0.094-0.032-0.164-0.057-0.209c-0.024-0.047-0.054-0.082-0.091-0.107
		c-0.036-0.025-0.083-0.043-0.143-0.055c-0.058-0.012-0.154-0.018-0.29-0.018h-1.095l-0.701,3.16h1.621
		c0.16,0,0.296-0.012,0.408-0.035c0.111-0.025,0.212-0.066,0.303-0.123c0.093-0.059,0.18-0.135,0.264-0.229
		c0.084-0.092,0.171-0.213,0.26-0.357c0.09-0.146,0.211-0.369,0.365-0.668h0.53l-0.481,1.895h-4.857l0.062-0.27
		c0.138-0.021,0.242-0.057,0.312-0.105c0.069-0.051,0.127-0.119,0.175-0.207c0.048-0.086,0.092-0.193,0.132-0.318
		c0.04-0.127,0.101-0.371,0.181-0.732l0.931-4.215c0.08-0.365,0.12-0.66,0.12-0.881c0-0.172-0.043-0.293-0.131-0.359
		s-0.223-0.107-0.405-0.119l0.061-0.268H109.019z"/>
	<path fill="#3A525B" d="M113.853,39.363h-1.726l0.696-2.781c0.043-0.18,0.086-0.377,0.128-0.592s0.063-0.408,0.063-0.58
		c0-0.26-0.044-0.445-0.134-0.559s-0.229-0.17-0.42-0.17c-0.152,0-0.317,0.059-0.494,0.178c-0.178,0.119-0.362,0.295-0.557,0.531
		c-0.192,0.234-0.356,0.475-0.489,0.717c-0.134,0.244-0.236,0.539-0.31,0.885l-0.498,2.371h-0.948l0.833-3.74
		c0.019-0.084,0.042-0.209,0.074-0.373c0.03-0.164,0.046-0.301,0.046-0.41c0-0.102-0.016-0.182-0.046-0.238
		c-0.032-0.057-0.085-0.098-0.159-0.125s-0.202-0.047-0.381-0.059l0.066-0.289l1.243-0.049h0.312l-0.367,1.422l0.066,0.023
		c0.356-0.504,0.702-0.877,1.034-1.121c0.333-0.242,0.665-0.363,0.997-0.363c0.354,0,0.622,0.098,0.805,0.293
		c0.182,0.195,0.274,0.484,0.274,0.867c0,0.131-0.013,0.275-0.036,0.43c-0.024,0.156-0.051,0.293-0.079,0.414l-0.46,1.949
		c-0.063,0.262-0.093,0.471-0.093,0.623c0,0.111,0.018,0.197,0.054,0.258c0.037,0.063,0.093,0.109,0.17,0.143
		s0.203,0.059,0.378,0.076L113.853,39.363z"/>
	<path fill="#3A525B" d="M119.618,34.128l0.147,0.273c-0.135,0.324-0.237,0.564-0.309,0.723c-0.072,0.158-0.168,0.354-0.291,0.588
		c-0.122,0.236-0.259,0.484-0.41,0.742c-0.151,0.26-0.324,0.537-0.518,0.832c-0.193,0.297-0.413,0.621-0.659,0.975
		c-0.247,0.355-0.536,0.75-0.868,1.189h-0.685l-0.51-4.135c-0.032-0.266-0.067-0.457-0.106-0.572
		c-0.038-0.115-0.094-0.199-0.167-0.252s-0.188-0.084-0.345-0.096l0.061-0.268h1.407l0.416,4.352
		c0.628-0.863,1.093-1.594,1.396-2.184c0.304-0.592,0.455-1.072,0.455-1.441c0-0.17-0.037-0.287-0.109-0.35
		c-0.073-0.061-0.197-0.098-0.372-0.109l0.055-0.268H119.618z"/>
	<path fill="#3A525B" d="M122.729,31.982l-0.253,1.063h-0.968l0.251-1.063H122.729z M121.375,37.994
		c-0.039,0.186-0.065,0.322-0.076,0.408s-0.017,0.158-0.017,0.215c0,0.109,0.019,0.195,0.056,0.258
		c0.035,0.063,0.093,0.109,0.17,0.143c0.075,0.033,0.201,0.059,0.377,0.076l-0.049,0.27h-1.697l0.826-3.691
		c0.048-0.211,0.081-0.379,0.099-0.506s0.027-0.23,0.027-0.314c0-0.107-0.016-0.189-0.046-0.246
		c-0.031-0.059-0.083-0.102-0.156-0.133c-0.073-0.029-0.199-0.047-0.378-0.055l0.06-0.289l1.336-0.051h0.323L121.375,37.994z"/>
	<path fill="#3A525B" d="M124.879,34.08h0.329l-0.384,1.346l0.066,0.021c0.347-0.477,0.685-0.832,1.016-1.061
		c0.33-0.23,0.67-0.346,1.021-0.346c0.266,0,0.488,0.02,0.668,0.061l-0.264,1.227h-0.563c-0.029-0.189-0.075-0.334-0.138-0.434
		c-0.062-0.098-0.158-0.146-0.289-0.146c-0.144,0-0.308,0.072-0.493,0.219c-0.187,0.145-0.376,0.346-0.569,0.602
		c-0.194,0.256-0.339,0.49-0.435,0.705c-0.098,0.217-0.171,0.455-0.223,0.719l-0.499,2.369h-0.946l0.833-3.738
		c0.075-0.344,0.113-0.604,0.113-0.783c0-0.102-0.016-0.182-0.049-0.238s-0.086-0.098-0.159-0.125
		c-0.072-0.027-0.195-0.047-0.372-0.059l0.061-0.289L124.879,34.08z"/>
	<path fill="#3A525B" d="M128.57,37.845c0,0.402,0.083,0.697,0.249,0.891c0.166,0.191,0.417,0.287,0.753,0.287
		c0.356,0,0.675-0.16,0.953-0.482c0.276-0.322,0.496-0.77,0.656-1.35c0.16-0.578,0.24-1.086,0.24-1.525
		c0-0.393-0.076-0.689-0.229-0.889c-0.154-0.199-0.394-0.299-0.718-0.299c-0.38,0-0.71,0.158-0.994,0.477
		c-0.282,0.318-0.505,0.773-0.667,1.363C128.651,36.91,128.57,37.419,128.57,37.845 M129.397,39.455
		c-0.566,0-1.005-0.158-1.317-0.475c-0.312-0.318-0.468-0.775-0.468-1.369c0-0.219,0.026-0.477,0.082-0.773
		c0.068-0.383,0.168-0.723,0.296-1.018c0.164-0.369,0.374-0.688,0.632-0.955c0.257-0.27,0.553-0.473,0.887-0.613
		s0.693-0.211,1.076-0.211c0.42,0,0.763,0.08,1.032,0.24c0.268,0.162,0.462,0.379,0.583,0.654c0.12,0.275,0.181,0.596,0.181,0.957
		c0,0.324-0.046,0.67-0.137,1.039c-0.132,0.539-0.324,0.998-0.575,1.373c-0.252,0.377-0.567,0.662-0.948,0.857
		C130.342,39.359,129.9,39.455,129.397,39.455"/>
	<path fill="#3A525B" d="M138.003,39.363h-1.724l0.694-2.781c0.044-0.18,0.087-0.377,0.128-0.592
		c0.044-0.215,0.063-0.408,0.063-0.58c0-0.26-0.044-0.445-0.134-0.559c-0.089-0.113-0.229-0.17-0.419-0.17
		c-0.153,0-0.318,0.059-0.495,0.178s-0.362,0.295-0.557,0.531c-0.192,0.234-0.355,0.475-0.488,0.717
		c-0.134,0.244-0.237,0.539-0.311,0.885l-0.498,2.371h-0.947l0.833-3.74c0.018-0.084,0.043-0.209,0.073-0.373
		c0.031-0.164,0.047-0.301,0.047-0.41c0-0.102-0.016-0.182-0.047-0.238c-0.03-0.057-0.084-0.098-0.158-0.125
		c-0.075-0.027-0.202-0.047-0.382-0.059l0.066-0.289l1.243-0.049h0.312l-0.366,1.422l0.065,0.023
		c0.357-0.504,0.702-0.877,1.035-1.121c0.331-0.242,0.664-0.363,0.996-0.363c0.354,0,0.622,0.098,0.805,0.293
		s0.274,0.484,0.274,0.867c0,0.131-0.013,0.275-0.036,0.43c-0.023,0.156-0.05,0.293-0.08,0.414l-0.459,1.949
		c-0.063,0.262-0.093,0.471-0.093,0.623c0,0.111,0.018,0.197,0.055,0.258c0.036,0.063,0.092,0.109,0.169,0.143
		s0.203,0.059,0.378,0.076L138.003,39.363z"/>
	<path fill="#3A525B" d="M144.092,35.201v0.078c0,0.023-0.002,0.053-0.006,0.082c0.318-0.449,0.634-0.781,0.948-0.998
		c0.313-0.215,0.639-0.322,0.974-0.322c0.347,0,0.611,0.098,0.792,0.293c0.18,0.195,0.271,0.484,0.271,0.867
		c0,0.234-0.037,0.516-0.11,0.844l-0.46,1.949c-0.063,0.262-0.093,0.471-0.093,0.625c0,0.107,0.018,0.195,0.055,0.256
		c0.036,0.063,0.093,0.109,0.169,0.143c0.077,0.033,0.203,0.059,0.378,0.076l-0.049,0.27h-1.719l0.689-2.781
		c0.051-0.201,0.096-0.406,0.134-0.611c0.038-0.207,0.058-0.393,0.058-0.561c0-0.264-0.046-0.451-0.136-0.563
		c-0.093-0.109-0.236-0.166-0.434-0.166c-0.143,0-0.302,0.059-0.479,0.176c-0.178,0.115-0.362,0.295-0.557,0.535
		c-0.193,0.24-0.351,0.48-0.474,0.715c-0.122,0.236-0.219,0.523-0.292,0.861l-0.499,2.395h-0.947l0.63-2.781
		c0.077-0.34,0.128-0.592,0.156-0.754c0.027-0.162,0.041-0.301,0.041-0.418c0-0.264-0.047-0.451-0.139-0.563
		c-0.095-0.109-0.239-0.166-0.437-0.166c-0.146,0-0.307,0.059-0.484,0.178c-0.178,0.117-0.364,0.303-0.562,0.551
		s-0.354,0.492-0.474,0.73c-0.118,0.238-0.21,0.523-0.276,0.852l-0.498,2.371h-0.947l0.832-3.74
		c0.019-0.084,0.043-0.207,0.074-0.373c0.031-0.164,0.047-0.301,0.047-0.41c0-0.102-0.016-0.182-0.047-0.238
		s-0.084-0.098-0.159-0.127c-0.073-0.025-0.201-0.045-0.38-0.057l0.065-0.289l1.248-0.049h0.307l-0.361,1.416l0.066,0.023
		c0.335-0.502,0.67-0.871,1.001-1.115c0.333-0.242,0.668-0.363,1.008-0.363c0.351,0,0.617,0.1,0.799,0.299
		C144.001,34.539,144.092,34.826,144.092,35.201"/>
	<path fill="#3A525B" d="M149.342,36.537c0.336-0.004,0.631-0.021,0.885-0.057s0.472-0.082,0.654-0.143
		c0.184-0.061,0.334-0.133,0.454-0.217c0.121-0.084,0.217-0.176,0.288-0.275c0.071-0.102,0.121-0.207,0.148-0.318
		c0.026-0.111,0.041-0.227,0.041-0.348c0-0.223-0.053-0.396-0.156-0.523c-0.104-0.125-0.259-0.188-0.463-0.188
		c-0.256,0-0.507,0.092-0.752,0.275c-0.247,0.186-0.465,0.434-0.652,0.744C149.6,35.8,149.452,36.15,149.342,36.537 M152.255,38.273
		c-0.27,0.295-0.529,0.529-0.776,0.701c-0.249,0.17-0.497,0.293-0.745,0.367c-0.248,0.072-0.522,0.107-0.821,0.107
		c-0.288,0-0.537-0.045-0.745-0.139s-0.38-0.221-0.517-0.383c-0.138-0.162-0.238-0.357-0.305-0.58
		c-0.065-0.225-0.098-0.469-0.098-0.732c0-0.391,0.069-0.809,0.21-1.256s0.354-0.848,0.638-1.205
		c0.285-0.355,0.626-0.631,1.024-0.826c0.396-0.195,0.821-0.293,1.27-0.293c0.442,0,0.773,0.09,0.994,0.27
		c0.221,0.178,0.331,0.457,0.331,0.836c0,0.621-0.291,1.086-0.873,1.396s-1.445,0.467-2.593,0.467
		c-0.043,0.219-0.065,0.455-0.065,0.711c0,0.383,0.075,0.662,0.225,0.836c0.149,0.172,0.394,0.258,0.733,0.258
		c0.337,0,0.641-0.072,0.914-0.217c0.274-0.146,0.561-0.371,0.86-0.674L152.255,38.273z"/>
	<path fill="#3A525B" d="M158.086,39.363h-1.725l0.695-2.781c0.044-0.18,0.087-0.377,0.128-0.592
		c0.043-0.215,0.064-0.408,0.064-0.58c0-0.26-0.045-0.445-0.135-0.559s-0.229-0.17-0.419-0.17c-0.153,0-0.318,0.059-0.495,0.178
		c-0.178,0.119-0.362,0.295-0.557,0.531c-0.192,0.234-0.355,0.475-0.488,0.717c-0.135,0.244-0.237,0.539-0.311,0.885l-0.498,2.371
		h-0.948l0.833-3.74c0.019-0.084,0.043-0.209,0.074-0.373s0.046-0.301,0.046-0.41c0-0.102-0.015-0.182-0.046-0.238
		s-0.084-0.098-0.159-0.125c-0.074-0.027-0.201-0.047-0.381-0.059l0.066-0.289l1.243-0.049h0.312l-0.367,1.422l0.066,0.023
		c0.356-0.504,0.702-0.877,1.035-1.121c0.332-0.242,0.664-0.363,0.996-0.363c0.354,0,0.622,0.098,0.805,0.293
		c0.182,0.195,0.274,0.484,0.274,0.867c0,0.131-0.013,0.275-0.036,0.43c-0.023,0.156-0.051,0.293-0.08,0.414l-0.459,1.949
		c-0.063,0.262-0.094,0.471-0.094,0.623c0,0.111,0.019,0.197,0.056,0.258c0.036,0.063,0.092,0.109,0.169,0.143
		s0.203,0.059,0.378,0.076L158.086,39.363z"/>
	<path fill="#3A525B" d="M162.62,38.355c-0.3,0.361-0.595,0.633-0.887,0.818c-0.292,0.184-0.604,0.275-0.932,0.275
		c-0.387,0-0.675-0.098-0.864-0.295c-0.19-0.197-0.285-0.482-0.285-0.859c0-0.23,0.032-0.486,0.099-0.771l0.679-2.842h-0.815
		l0.06-0.279c0.216-0.025,0.386-0.072,0.512-0.141c0.127-0.066,0.232-0.156,0.317-0.268c0.086-0.111,0.166-0.256,0.239-0.436
		c0.073-0.178,0.164-0.439,0.272-0.783h0.757l-0.302,1.354h1.736l-0.121,0.553h-1.741l-0.524,2.125
		c-0.147,0.59-0.221,1.033-0.221,1.324c0,0.223,0.05,0.391,0.146,0.506c0.097,0.115,0.239,0.172,0.425,0.172
		c0.168,0,0.344-0.064,0.528-0.193c0.184-0.131,0.386-0.326,0.604-0.588L162.62,38.355z"/>
	<path fill="#3A525B" d="M166.803,36.029c0.033-0.15,0.055-0.281,0.066-0.389c0.011-0.111,0.016-0.229,0.016-0.357
		c0-0.285-0.061-0.492-0.18-0.621c-0.121-0.129-0.322-0.193-0.604-0.193c-0.153,0-0.299,0.023-0.438,0.072
		c-0.14,0.049-0.279,0.131-0.422,0.246s-0.277,0.268-0.407,0.453s-0.247,0.412-0.354,0.678c-0.105,0.268-0.188,0.553-0.246,0.857
		s-0.088,0.602-0.088,0.891c0,0.379,0.052,0.662,0.156,0.852c0.104,0.188,0.278,0.281,0.522,0.281c0.112,0,0.23-0.025,0.354-0.076
		c0.122-0.053,0.258-0.146,0.408-0.283c0.148-0.137,0.318-0.338,0.509-0.605c0.171-0.244,0.308-0.484,0.408-0.725
		c0.1-0.238,0.183-0.521,0.249-0.846L166.803,36.029z M167.285,34.396l0.504-0.361l0.35,0.088l-0.838,3.717
		c-0.051,0.221-0.085,0.389-0.104,0.508c-0.018,0.117-0.026,0.215-0.026,0.293c0,0.148,0.042,0.258,0.126,0.324
		c0.084,0.068,0.244,0.111,0.481,0.129l-0.05,0.27h-1.565l0.345-1.375l-0.071-0.021c-0.35,0.512-0.682,0.885-0.996,1.121
		c-0.313,0.238-0.646,0.357-0.996,0.357c-0.401,0-0.714-0.152-0.934-0.455c-0.221-0.303-0.332-0.729-0.332-1.275
		c0-0.352,0.041-0.701,0.121-1.055c0.08-0.352,0.202-0.686,0.364-1.002c0.162-0.314,0.356-0.594,0.583-0.834
		c0.227-0.242,0.487-0.434,0.785-0.576c0.298-0.141,0.621-0.213,0.973-0.213c0.226,0,0.441,0.027,0.646,0.08
		S167.065,34.261,167.285,34.396"/>
	<path fill="#3A525B" d="M171.38,31.533h0.323l-1.424,6.461c-0.04,0.176-0.065,0.307-0.076,0.396
		c-0.012,0.09-0.018,0.166-0.018,0.227c0,0.109,0.019,0.195,0.056,0.258c0.036,0.063,0.093,0.109,0.17,0.143
		s0.203,0.059,0.377,0.076l-0.043,0.27h-1.709l1.413-6.287c0.037-0.16,0.062-0.279,0.076-0.359c0.016-0.082,0.025-0.158,0.033-0.23
		c0.007-0.074,0.012-0.137,0.012-0.191c0-0.111-0.021-0.193-0.061-0.25c-0.041-0.057-0.098-0.098-0.173-0.123
		s-0.209-0.043-0.402-0.055L170,31.582L171.38,31.533z"/>
	<path fill="#3A525B" d="M174.944,37.66c0,0.441,0.102,0.771,0.307,0.988c0.204,0.217,0.524,0.326,0.958,0.326
		c0.336,0,0.624-0.063,0.865-0.188c0.24-0.123,0.423-0.299,0.547-0.527c0.125-0.229,0.186-0.5,0.186-0.814
		c0-0.221-0.039-0.418-0.117-0.588s-0.196-0.332-0.355-0.486c-0.159-0.156-0.387-0.334-0.688-0.535
		c-0.27-0.182-0.494-0.361-0.674-0.539c-0.178-0.176-0.32-0.375-0.427-0.594s-0.159-0.463-0.159-0.732
		c0-0.432,0.104-0.811,0.313-1.141c0.208-0.328,0.502-0.582,0.881-0.76c0.38-0.18,0.817-0.27,1.313-0.27
		c0.336,0,0.647,0.023,0.934,0.068c0.287,0.047,0.604,0.123,0.951,0.234l-0.308,1.406h-0.525c-0.015-0.311-0.062-0.555-0.143-0.73
		c-0.08-0.178-0.194-0.305-0.345-0.381s-0.348-0.115-0.597-0.115c-0.303,0-0.569,0.063-0.8,0.188
		c-0.229,0.123-0.404,0.293-0.525,0.506c-0.12,0.213-0.18,0.451-0.18,0.715c0,0.189,0.032,0.357,0.098,0.508
		s0.171,0.297,0.314,0.441c0.145,0.145,0.355,0.311,0.633,0.502c0.357,0.248,0.631,0.469,0.818,0.664
		c0.188,0.195,0.327,0.402,0.416,0.621s0.134,0.473,0.134,0.762c0,0.441-0.106,0.834-0.319,1.18
		c-0.213,0.344-0.516,0.611-0.903,0.799c-0.389,0.189-0.832,0.283-1.328,0.283c-0.339,0-0.7-0.027-1.082-0.078
		c-0.381-0.051-0.729-0.121-1.048-0.207l0.329-1.506H174.944z"/>
	<path fill="#3A525B" d="M180.885,37.845c0,0.402,0.083,0.697,0.249,0.891c0.166,0.191,0.417,0.287,0.753,0.287
		c0.356,0,0.675-0.16,0.953-0.482c0.276-0.322,0.495-0.77,0.656-1.35c0.16-0.578,0.24-1.086,0.24-1.525
		c0-0.393-0.076-0.689-0.229-0.889c-0.154-0.199-0.394-0.299-0.719-0.299c-0.379,0-0.71,0.158-0.993,0.477
		c-0.282,0.318-0.506,0.773-0.668,1.363C180.966,36.91,180.885,37.419,180.885,37.845 M181.711,39.455
		c-0.565,0-1.005-0.158-1.316-0.475c-0.313-0.318-0.468-0.775-0.468-1.369c0-0.219,0.026-0.477,0.082-0.773
		c0.068-0.383,0.168-0.723,0.296-1.018c0.164-0.369,0.375-0.688,0.632-0.955c0.257-0.27,0.553-0.473,0.887-0.613
		s0.693-0.211,1.076-0.211c0.42,0,0.763,0.08,1.032,0.24c0.268,0.162,0.462,0.379,0.583,0.654c0.12,0.275,0.181,0.596,0.181,0.957
		c0,0.324-0.046,0.67-0.137,1.039c-0.132,0.539-0.324,0.998-0.575,1.373c-0.252,0.377-0.568,0.662-0.948,0.857
		C182.656,39.359,182.215,39.455,181.711,39.455"/>
	<path fill="#3A525B" d="M187.92,31.533h0.323l-1.424,6.461c-0.04,0.176-0.065,0.307-0.077,0.396
		c-0.01,0.09-0.017,0.166-0.017,0.227c0,0.109,0.019,0.195,0.056,0.258s0.093,0.109,0.17,0.143c0.076,0.033,0.203,0.059,0.377,0.076
		l-0.043,0.27h-1.709l1.413-6.287c0.037-0.16,0.062-0.279,0.077-0.359c0.015-0.082,0.024-0.158,0.032-0.23
		c0.008-0.074,0.012-0.137,0.012-0.191c0-0.111-0.021-0.193-0.061-0.25c-0.041-0.057-0.098-0.098-0.173-0.123
		s-0.209-0.043-0.403-0.055l0.066-0.285L187.92,31.533z"/>
	<path fill="#3A525B" d="M188.982,34.128h1.725l-0.696,2.787c-0.051,0.203-0.096,0.408-0.133,0.609
		c-0.039,0.203-0.058,0.389-0.058,0.557c0,0.258,0.044,0.445,0.134,0.557c0.09,0.115,0.229,0.17,0.419,0.17
		c0.157,0,0.326-0.061,0.509-0.182c0.184-0.123,0.376-0.313,0.581-0.57c0.204-0.258,0.365-0.5,0.484-0.73
		c0.118-0.23,0.211-0.504,0.275-0.822l0.499-2.375h0.947l-0.832,3.738c-0.021,0.1-0.048,0.229-0.077,0.389
		c-0.028,0.162-0.044,0.293-0.044,0.395c0,0.154,0.043,0.264,0.129,0.326c0.086,0.064,0.245,0.104,0.479,0.117l-0.061,0.27h-1.565
		l0.351-1.375l-0.071-0.021c-0.354,0.504-0.696,0.877-1.027,1.119c-0.33,0.244-0.663,0.365-0.999,0.365
		c-0.354,0-0.622-0.1-0.804-0.293c-0.184-0.195-0.274-0.486-0.274-0.869c0-0.109,0.009-0.238,0.03-0.385
		c0.02-0.148,0.048-0.303,0.085-0.465l0.459-1.941c0.037-0.162,0.062-0.289,0.074-0.385c0.013-0.094,0.02-0.176,0.02-0.24
		c0-0.164-0.044-0.279-0.132-0.344c-0.088-0.066-0.244-0.109-0.471-0.127L188.982,34.128z"/>
	<path fill="#3A525B" d="M197.841,38.355c-0.3,0.361-0.595,0.633-0.887,0.818c-0.292,0.184-0.604,0.275-0.931,0.275
		c-0.388,0-0.676-0.098-0.865-0.295c-0.19-0.197-0.284-0.482-0.284-0.859c0-0.23,0.032-0.486,0.098-0.771l0.68-2.842h-0.816
		l0.061-0.279c0.216-0.025,0.386-0.072,0.512-0.141c0.126-0.066,0.231-0.156,0.316-0.268c0.087-0.111,0.166-0.256,0.239-0.436
		c0.073-0.178,0.164-0.439,0.273-0.783h0.756l-0.301,1.354h1.735l-0.121,0.553h-1.74l-0.525,2.125
		c-0.147,0.59-0.22,1.033-0.22,1.324c0,0.223,0.049,0.391,0.145,0.506c0.098,0.115,0.239,0.172,0.425,0.172
		c0.167,0,0.345-0.064,0.528-0.193c0.184-0.131,0.386-0.326,0.605-0.588L197.841,38.355z"/>
	<path fill="#3A525B" d="M201.082,31.982l-0.251,1.063h-0.97l0.253-1.063H201.082z M199.729,37.994
		c-0.04,0.186-0.065,0.322-0.075,0.408c-0.013,0.086-0.018,0.158-0.018,0.215c0,0.109,0.019,0.195,0.056,0.258
		c0.035,0.063,0.093,0.109,0.169,0.143s0.202,0.059,0.378,0.076l-0.05,0.27h-1.696l0.826-3.691c0.048-0.211,0.081-0.379,0.099-0.506
		s0.028-0.23,0.028-0.314c0-0.107-0.017-0.189-0.048-0.246c-0.03-0.059-0.082-0.102-0.155-0.133
		c-0.073-0.029-0.199-0.047-0.378-0.055l0.06-0.289l1.336-0.051h0.323L199.729,37.994z"/>
	<path fill="#3A525B" d="M202.468,37.845c0,0.402,0.083,0.697,0.249,0.891c0.166,0.191,0.417,0.287,0.753,0.287
		c0.356,0,0.675-0.16,0.953-0.482c0.276-0.322,0.496-0.77,0.657-1.35c0.159-0.578,0.239-1.086,0.239-1.525
		c0-0.393-0.076-0.689-0.229-0.889c-0.154-0.199-0.394-0.299-0.717-0.299c-0.381,0-0.711,0.158-0.994,0.477
		s-0.506,0.773-0.668,1.363C202.549,36.91,202.468,37.419,202.468,37.845 M203.295,39.455c-0.566,0-1.005-0.158-1.317-0.475
		c-0.312-0.318-0.468-0.775-0.468-1.369c0-0.219,0.027-0.477,0.082-0.773c0.07-0.383,0.168-0.723,0.296-1.018
		c0.164-0.369,0.375-0.688,0.632-0.955c0.257-0.27,0.553-0.473,0.887-0.613s0.693-0.211,1.076-0.211c0.42,0,0.764,0.08,1.032,0.24
		c0.268,0.162,0.462,0.379,0.583,0.654c0.12,0.275,0.181,0.596,0.181,0.957c0,0.324-0.046,0.67-0.137,1.039
		c-0.132,0.539-0.324,0.998-0.575,1.373c-0.252,0.377-0.567,0.662-0.948,0.857C204.239,39.359,203.798,39.455,203.295,39.455"/>
	<path fill="#3A525B" d="M211.901,39.363h-1.725l0.695-2.781c0.044-0.18,0.087-0.377,0.128-0.592
		c0.043-0.215,0.063-0.408,0.063-0.58c0-0.26-0.044-0.445-0.134-0.559s-0.229-0.17-0.42-0.17c-0.152,0-0.317,0.059-0.494,0.178
		c-0.178,0.119-0.362,0.295-0.557,0.531c-0.192,0.234-0.355,0.475-0.488,0.717c-0.135,0.244-0.237,0.539-0.311,0.885l-0.498,2.371
		h-0.948l0.833-3.74c0.019-0.084,0.043-0.209,0.074-0.373c0.03-0.164,0.046-0.301,0.046-0.41c0-0.102-0.016-0.182-0.046-0.238
		c-0.031-0.057-0.084-0.098-0.159-0.125s-0.202-0.047-0.381-0.059l0.066-0.289l1.243-0.049h0.312l-0.367,1.422l0.066,0.023
		c0.356-0.504,0.702-0.877,1.035-1.121c0.331-0.242,0.664-0.363,0.996-0.363c0.354,0,0.622,0.098,0.805,0.293
		c0.182,0.195,0.274,0.484,0.274,0.867c0,0.131-0.013,0.275-0.036,0.43c-0.024,0.156-0.051,0.293-0.08,0.414l-0.459,1.949
		c-0.063,0.262-0.094,0.471-0.094,0.623c0,0.111,0.019,0.197,0.056,0.258c0.036,0.063,0.092,0.109,0.169,0.143
		s0.203,0.059,0.378,0.076L211.901,39.363z"/>
	<path fill="#3A525B" d="M216.353,35.404c-0.04-0.328-0.135-0.566-0.282-0.715s-0.376-0.221-0.688-0.221
		c-0.171,0-0.326,0.031-0.465,0.096s-0.249,0.156-0.329,0.279c-0.08,0.121-0.12,0.266-0.12,0.43c0,0.135,0.028,0.258,0.082,0.369
		c0.056,0.111,0.147,0.227,0.277,0.348c0.129,0.119,0.311,0.258,0.545,0.416c0.354,0.236,0.602,0.467,0.744,0.689
		c0.142,0.223,0.214,0.48,0.214,0.771c0,0.344-0.082,0.635-0.247,0.873c-0.164,0.24-0.389,0.418-0.674,0.535
		c-0.284,0.117-0.605,0.174-0.963,0.174c-0.321,0-0.622-0.023-0.901-0.07c-0.278-0.047-0.55-0.107-0.813-0.182l0.257-1.182h0.427
		c0.026,0.336,0.122,0.588,0.288,0.754s0.408,0.248,0.725,0.248c0.325,0,0.579-0.08,0.762-0.244
		c0.183-0.162,0.273-0.377,0.273-0.643c0-0.156-0.026-0.299-0.082-0.422c-0.055-0.123-0.14-0.242-0.257-0.355
		s-0.283-0.242-0.498-0.389c-0.23-0.156-0.417-0.305-0.559-0.443c-0.143-0.139-0.252-0.291-0.331-0.457
		c-0.078-0.166-0.118-0.35-0.118-0.551c0-0.303,0.075-0.566,0.225-0.789c0.149-0.221,0.362-0.393,0.639-0.508
		c0.274-0.117,0.597-0.176,0.966-0.176c0.602,0,1.133,0.078,1.593,0.234l-0.252,1.129H216.353z"/>
	<path fill="#3A525B" d="M24.435,30.023C5.843,36.056,8.294,15.638,10.388,5.492C5.337,8.779,2,14.47,2,20.947
		c0,3.234,0.829,6.275,2.3,8.914c0.805-0.402,1.705-0.623,2.658-0.623c3.333,0,6.036,2.711,6.036,6.035
		c0,0.822-0.162,1.607-0.462,2.326c2.393,1.137,5.064,1.771,7.884,1.771c1.186,0,2.334-0.111,3.453-0.324
		C24.486,36.414,24.688,33.335,24.435,30.023 M20.416,2.531c-0.928,0-1.834,0.063-2.723,0.201
		c9.866,5.523,26.538,18.844,9.678,26.182c0.623,3.072,0.862,6.041,0.772,8.758c6.307-2.916,10.688-9.309,10.688-16.725
		C38.832,10.777,30.593,2.531,20.416,2.531 M26.619,25.75c-2.055-7.377-5.775-13.379-9.808-16.594
		c2.561,3.318,4.771,7.752,6.19,12.848c0.766,2.748,1.237,5.451,1.433,8.02c0.648-0.207,1.321-0.453,2.023-0.734
		c0.316-0.121,0.622-0.246,0.913-0.375C27.171,27.871,26.91,26.814,26.619,25.75"/>
	<path fill="#A0BF38" d="M11.697,35.273c0,0.602-0.118,1.186-0.324,1.719c-0.681,1.77-2.398,3.027-4.416,3.027
		c-2.618,0-4.738-2.127-4.738-4.746c0-1.906,1.128-3.545,2.749-4.297c0.604-0.287,1.276-0.441,1.989-0.441
		C9.577,30.535,11.697,32.66,11.697,35.273"/>
</g>
</svg>
