<?xml version="1.0" encoding="utf-8"?>
<!-- Generator: Adobe Illustrator 15.0.2, SVG Export Plug-In . SVG Version: 6.00 Build 0)  -->
<!DOCTYPE svg PUBLIC "-//W3C//DTD SVG 1.1//EN" "http://www.w3.org/Graphics/SVG/1.1/DTD/svg11.dtd">
<svg version="1.1" id="Layer_1" xmlns="http://www.w3.org/2000/svg" xmlns:xlink="http://www.w3.org/1999/xlink" viewBox="0 0 1814.17 906.09" enable-background="new 0 0 1814.17 906.09"
	 xml:space="preserve">
<rect x="95.085" y="666.623" fill="#DC0D15" width="1624.001" height="148.249"/>
<g>
	<defs>
		<rect id="SVGID_1_" y="-236.044" width="1814.17" height="1354.96"/>
	</defs>
	<clipPath id="SVGID_2_">
		<use xlink:href="#SVGID_1_"  overflow="visible"/>
	</clipPath>
	<path clip-path="url(#SVGID_2_)" d="M407.829,588.173c-21.735,5.027-40.813,12.369-65.203,15.091
		c-29.567,3.291-58.768,4.894-88.554,4.554c-27.105-0.306-56.639-3.413-81.263-9.724c-18.284-4.688-37.032-14.379-48.635-26.659
		c-12.337-13.061-21.67-27.511-25.728-46.306c-5.018-23.285-4.805-46.181,3.279-66.88c8.45-21.626,23.001-38.68,40.687-50.975
		c19.301-13.414,40.199-18.837,64.079-23.392c13.224-2.516,23.685-3.835,39.754-2.331c8.251,0.77,15.897,1.852,23.847,5.608
		l0.937,82.784c-11.848-0.623-24.143-3.006-35.543-1.872c-6.281,0.632-14.008,2.062-17.768,6.547
		c-3.938,4.698-6.584,12.113-4.68,17.773c1.727,5.13,4.847,9.876,10.758,12.164c10.545,4.082,22.366,4.472,33.671,4.207
		c6.705-0.157,12.286,0.196,20.109-0.469c7.132-1.133,7.801-2.805,11.691-4.211c0-38.194,0.782-98.216,0-114.582
		c-0.514-11.046-12.712-20.666-23.381-23.856c-10.67-3.19-24.814-5.242-38.348-3.742l-42.099,4.68v-89.798l41.63-4.679
		c27.571-3.098,55.174-3.919,81.848-0.464c20.012,2.59,39.113,7.985,57.528,18.238c9.63,5.362,18.786,14.969,24.784,25.253
		c7.081,12.137,10.578,25.389,12.63,38.352c2.126,13.414,3.881,27.129,4.207,40.692L407.829,588.173z"/>
	<polygon clip-path="url(#SVGID_2_)" points="809.851,277.132 926.549,276.85 926.549,605.618 809.573,605.618 	"/>
	<path clip-path="url(#SVGID_2_)" d="M868.135,101.825c33.486,0,60.639,27.147,60.639,60.639c0,33.485-27.153,60.638-60.639,60.638
		c-33.49,0-60.639-27.153-60.639-60.638C807.496,128.972,834.645,101.825,868.135,101.825"/>
	<path clip-path="url(#SVGID_2_)" d="M1455.341,217.572c0-21.256-16.4-37.837-30.737-51.594
		c-11.199-10.962-27.119-17.384-43.302-17.384c-30.862,0-57.94,26.563-57.94,56.841c0,22.426,15.424,40.246,32.056,53.484
		c4.336,3.282,9.04,6.853,13.804,9.694c-24.293,5.456-40.914,27.353-40.914,56.061v211c0,24.307,12.232,39.063,28.87,53.358
		c10.544,8.2,24.44,16.167,40.223,16.167c30.704,0,52.992-24.139,52.992-57.388V336.806c0-24.301-15.903-39.814-29.847-53.051
		c-3.389-3.399-7.103-5.943-11.022-8.455C1435.669,269.602,1455.341,245.885,1455.341,217.572"/>
	<path clip-path="url(#SVGID_2_)" d="M1693.541,286.41c-9.529-9.369-19.971-14.119-34.899-15.498v-22.018
		c0-24.306-16.491-40.111-29.771-53.075c-9.99-10.307-23.539-16.45-39.317-16.45c-30.709,0-52.996,24.135-52.996,57.393v33.821
		h-4.151c-27.397,0-48.05,20.656-48.05,48.051c0,20.758,11.166,33.421,26.163,44.546c7.847,5.505,15.388,12.173,26.038,14.421
		v158.078c0,24.302,12.736,40.775,29.994,52.964c12.104,8.511,23.318,16.557,39.096,16.557c30.709,0,52.995-24.134,52.995-57.388
		V378.817h9.091c31.197,0,51.354-18.86,51.354-48.052C1719.086,310.104,1705.564,298.595,1693.541,286.41"/>
	<path clip-path="url(#SVGID_2_)" d="M1234.561,294.925c-23.892-17.885-50.942-30.937-85.691-30.937
		c-15.875,0-31.359,2.809-45.748,8.144v-62.802c0-28.305-18.67-49.551-41.017-61.604c-7.995-5.08-17.537-7.922-28.077-7.922
		c-30.7,0-52.991,24.139-52.991,57.388v338.481c0,24.307,10.335,43.91,28.095,54.64c13.01,8.169,25.213,14.886,40.998,14.886
		c19.042,0,33.891-7.467,43.376-21.441c17.606,15.453,42.568,24.738,68.718,24.738c41.119,0,78.562-18.261,105.426-51.408
		c24.301-29.98,38.231-70.417,38.231-110.937C1305.88,386.167,1281.113,327.414,1234.561,294.925 M1140.744,494.378
		c-24.386,0-44.16-25.017-44.16-55.875c0-30.863,19.774-55.88,44.16-55.88c24.395,0,44.165,25.017,44.165,55.88
		C1184.909,469.362,1165.139,494.378,1140.744,494.378"/>
	<path clip-path="url(#SVGID_2_)" fill="#FFFFFF" d="M1135.683,510.397c41.213,0,61.544-42.856,61.544-79.67
		c0-37.368-20.331-80.776-61.544-80.776c-42.308,0-62.087,39.563-62.087,78.027C1073.596,466.436,1092.274,510.397,1135.683,510.397
		 M994.469,197.193c0-26.377,16.482-43.961,39.559-43.961s39.568,17.584,39.568,43.961v107.701
		c20.875-18.135,47.801-27.477,75.278-27.477c85.169,0,127.484,79.675,127.484,156.607c0,74.725-50.558,148.902-130.233,148.902
		c-26.926,0-57.699-12.085-72.529-36.262c-4.944,20.884-17.588,32.971-39.568,32.971c-23.076,0-39.559-17.584-39.559-43.962V197.193
		z"/>
	<path clip-path="url(#SVGID_2_)" fill="#FFFFFF" d="M1341.743,324.673c0-26.372,16.482-43.96,39.559-43.96
		c23.075,0,39.563,17.588,39.563,43.96v211c0,26.378-16.488,43.956-39.563,43.956c-23.076,0-39.559-17.578-39.559-43.956V324.673z
		 M1425.811,205.435c0,24.729-19.78,45.608-44.509,45.608c-23.629,0-44.509-21.427-44.509-45.608
		c0-22.523,20.88-43.408,44.509-43.408C1404.926,162.027,1425.811,182.358,1425.811,205.435"/>
	<path clip-path="url(#SVGID_2_)" fill="#FFFFFF" d="M1549.986,353.248h-17.581c-21.432,0-34.617-13.182-34.617-34.619
		c0-19.78,14.84-34.614,34.617-34.614h17.581v-47.257c0-26.373,16.492-43.961,39.563-43.961c23.081,0,39.563,17.588,39.563,43.961
		v47.257h22.528c20.333,0,37.916,9.342,37.916,34.614c0,24.729-17.583,34.619-37.916,34.619h-22.528v182.426
		c0,26.378-16.482,43.962-39.563,43.962c-23.07,0-39.563-17.584-39.563-43.962V353.248z"/>
	<path clip-path="url(#SVGID_2_)" fill="#DC0D15" d="M426.568,271.255c3.097,12.401,91.302,295.3,101.066,313.672
		c9.388,17.653,15.498,20.531,23.563,20.531c8.06,0,15.347-4.602,21.596-22.407c9.717-27.654,55.29-143.137,83.812-205.763
		c28.523-62.63,58.748-124.323,63.712-130.521c4.959-6.202,10.071-7.132,16.121-3.724c5.837,3.302,14.403,7.754,19.533,9.148
		c5.126,1.392,20.012-3.571,18.155-26.512c-1.867-22.942-3.38-117.498-3.432-132.997c-0.078-23.485-19.997-29.609-34.256-20.927
		c-14.264,8.683-128.813,77.354-142.454,84.17c-13.646,6.826-16.743,23.564-4.964,30.39c11.779,6.815,16.887,6.964,20.462,8.988
		c3.816,2.159,7.764,2.907,3.25,14.105c-4.801,11.933-27.803,82.996-43.245,124.166c-15.443,41.165-26.234,75.933-28.829,85.335
		c-3.552,12.862-12.764,13.154-16.506,2.79c-3.752-10.377-60.657-143.484-66.716-158.435c-6.064-14.947-14.427-23.238-24.196-20.336
		C423.471,245.833,423.471,258.858,426.568,271.255"/>
	<path clip-path="url(#SVGID_2_)" fill="#FFFFFF" d="M1512.613,702.492c-14.103,0-26.293,9.225-26.293,24.068
		c0,24.599,35.412,17.067,35.412,29.581c0,5.191-3.817,9.114-10.814,9.114c-6.89,0-12.828-4.133-17.81-4.133
		c-4.348,0-7.105,3.391-7.105,7.527c0,9.964,17.603,11.877,25.765,11.877c14.632,0,27.145-9.439,27.145-24.6
		c0-27.354-35.418-20.359-35.418-31.275c0-4.453,4.137-6.896,8.695-6.896c6.361,0,9.761,3.182,14.106,3.182
		c4.342,0,7.101-3.706,7.101-7.843C1533.396,704.714,1518.551,702.492,1512.613,702.492 M1406.189,771.617
		c0,5.308,3.389,8.274,7.948,8.274s7.958-2.967,7.958-8.274v-39.541h0.205l33.61,44.314c1.481,1.908,4.667,3.501,6.682,3.501
		c4.56,0,7.954-2.967,7.954-8.274v-60.22c0-5.303-3.395-8.271-7.954-8.271c-4.559,0-7.948,2.968-7.948,8.271v40.073h-0.213
		l-33.612-44.842c-1.38-1.914-4.666-3.502-6.682-3.502c-4.56,0-7.948,2.968-7.948,8.271V771.617z M1354.753,780.527
		c21.738,0,36.476-17.072,36.476-39.021c0-21.521-15.164-39.015-36.476-39.015c-21.628,0-36.468,16.965-36.468,39.015
		C1318.285,763.455,1333.232,780.527,1354.753,780.527 M1354.753,765.891c-13.465,0-19.928-11.449-19.928-24.385
		c0-12.829,6.677-24.386,19.928-24.386c13.26,0,19.937,11.557,19.937,24.386C1374.689,754.442,1368.218,765.891,1354.753,765.891
		 M1287.271,771.617c0,5.308,3.393,8.274,7.953,8.274c4.56,0,7.948-2.967,7.948-8.274v-60.22c0-5.303-3.389-8.271-7.948-8.271
		c-4.561,0-7.953,2.968-7.953,8.271V771.617z M1240.877,771.617c0,5.308,3.389,8.274,7.948,8.274c4.561,0,7.954-2.967,7.954-8.274
		v-53.219h11.556c5.09,0,7.207-3.714,7.207-7.318c0-3.709-2.647-7.312-7.207-7.312h-39.021c-4.559,0-7.207,3.603-7.207,7.312
		c0,3.604,2.118,7.318,7.207,7.318h11.563V771.617z M1146.228,749.246c0,18.024,14.522,31.281,32.227,31.281
		c17.501,0,32.131-13.466,32.131-31.281v-37.849c0-5.303-3.397-8.271-7.95-8.271c-4.558,0-7.956,2.968-7.956,8.271v37.005
		c0,9.328-6.576,17.489-16.225,17.489c-10.065,0-16.324-7.739-16.324-17.489v-37.005c0-5.303-3.394-8.271-7.954-8.271
		c-4.555,0-7.948,2.968-7.948,8.271V749.246z M1095.789,770.563c0,5.298,3.074,8.692,8.271,8.692h26.505
		c4.673,0,7.421-3.501,7.635-7.003c0.106-3.603-2.224-7.628-7.635-7.628h-18.867v-53.228c0-5.303-3.399-8.271-7.959-8.271
		c-4.551,0-7.949,2.968-7.949,8.271V770.563z M1044.042,780.527c21.734,0,36.472-17.072,36.472-39.021
		c0-21.521-15.164-39.015-36.472-39.015c-21.632,0-36.476,16.965-36.476,39.015C1007.566,763.455,1022.521,780.527,1044.042,780.527
		 M1044.042,765.891c-13.464,0-19.933-11.449-19.933-24.385c0-12.829,6.677-24.386,19.933-24.386
		c13.252,0,19.933,11.557,19.933,24.386C1063.975,754.442,1057.508,765.891,1044.042,765.891 M969.879,702.492
		c-14.107,0-26.294,9.225-26.294,24.068c0,24.599,35.412,17.067,35.412,29.581c0,5.191-3.816,9.114-10.818,9.114
		c-6.89,0-12.823-4.133-17.811-4.133c-4.347,0-7.104,3.391-7.104,7.527c0,9.964,17.602,11.877,25.769,11.877
		c14.625,0,27.144-9.439,27.144-24.6c0-27.354-35.418-20.359-35.418-31.275c0-4.453,4.133-6.896,8.692-6.896
		c6.361,0,9.761,3.182,14.105,3.182c4.346,0,7.104-3.706,7.104-7.843C990.661,704.714,975.813,702.492,969.879,702.492
		 M832.894,741.506c0,21.948,14.946,39.021,36.471,39.021c7.847,0,23.856-2.336,23.856-12.513c0-2.438-2.229-7.207-6.992-7.207
		c-4.346,0-7.958,4.448-16.864,4.448c-13.038,0-19.928-10.813-19.928-23.428c0-12.938,6.784-24.071,19.928-24.071
		c8.906,0,11.877,3.714,16.223,3.714c3.924,0,6.574-3.291,6.574-7.103c0-9.332-15.053-11.876-22.797-11.876
		C847.737,702.492,832.894,719.457,832.894,741.506 M801.883,771.617c0,5.308,3.389,8.274,7.949,8.274
		c4.564,0,7.953-2.967,7.953-8.274v-60.22c0-5.303-3.389-8.271-7.953-8.271c-4.56,0-7.949,2.968-7.949,8.271V771.617z
		 M747.122,771.617c0,5.308,3.39,8.274,7.949,8.274c4.56,0,7.959-2.967,7.959-8.274v-23.113h16.427c5.093,0,7.638-3.705,7.638-7.419
		c0-3.604-2.545-7.207-7.638-7.207H763.03v-15.479h19.505c4.773,0,7.104-3.714,7.104-7.318c0-3.709-2.438-7.312-7.104-7.312h-27.143
		c-5.303,0-8.27,3.917-8.27,8.265V771.617z M692.361,771.617c0,5.308,3.394,8.274,7.954,8.274s7.949-2.967,7.949-8.274v-23.113
		H724.7c5.085,0,7.629-3.705,7.629-7.419c0-3.604-2.544-7.207-7.629-7.207h-16.436v-15.479h19.506c4.773,0,7.103-3.714,7.103-7.318
		c0-3.709-2.433-7.312-7.103-7.312h-27.135c-5.302,0-8.274,3.917-8.274,8.265V771.617z M646.767,719.034h0.213l9.862,30.746H636.7
		L646.767,719.034z M614.219,768.97c-0.209,0.525-0.743,1.801-0.743,3.497c0,4.242,3.607,7.424,7.846,7.424
		c4.351,0,6.574-2.336,7.633-5.618l3.186-9.863h29.474l3.176,9.966c1.064,3.18,3.292,5.516,7.745,5.516
		c3.918,0,7.317-2.866,7.317-6.997c0-0.744-0.213-2.23-0.844-3.924l-20.783-57.677c-1.801-5.095-5.73-8.802-11.348-8.802
		c-5.409,0-9.542,3.922-11.343,8.802L614.219,768.97z M565.309,718.398h10.92c5.836,0,9.862,3.282,9.862,9.327
		c0,5.939-4.026,9.436-9.862,9.436h-10.92V718.398z M549.406,771.617c0,5.308,3.394,8.274,7.953,8.274c4.56,0,7.95-2.967,7.95-8.274
		V748.61h0.212l23.542,28.522c1.694,2.016,4.244,2.759,6.146,2.759c4.668,0,7.949-4.03,7.949-8.163c0-1.485-0.631-3.078-2.117-4.667
		l-18.024-19.297c10.818-1.698,19.617-8.38,19.617-20.039c0-16.646-10.076-23.957-26.405-23.957h-18.656
		c-5.302,0-8.167,3.174-8.167,8.265V771.617z M503.012,771.617c0,5.308,3.394,8.274,7.949,8.274c4.56,0,7.954-2.967,7.954-8.274
		v-53.219h11.561c5.085,0,7.207-3.714,7.207-7.318c0-3.709-2.648-7.312-7.207-7.312h-39.02c-4.56,0-7.212,3.603-7.212,7.312
		c0,3.604,2.122,7.318,7.212,7.318h11.556V771.617z M401.862,718.398h10.921c5.831,0,9.862,3.282,9.862,9.327
		c0,5.939-4.031,9.436-9.862,9.436h-10.921V718.398z M385.96,771.617c0,5.308,3.395,8.274,7.953,8.274
		c4.556,0,7.949-2.967,7.949-8.274V748.61h0.214l23.536,28.522c1.7,2.016,4.24,2.759,6.152,2.759c4.667,0,7.949-4.03,7.949-8.163
		c0-1.485-0.636-3.078-2.117-4.667l-18.025-19.297c10.819-1.698,19.617-8.38,19.617-20.039c0-16.646-10.076-23.957-26.405-23.957
		h-18.655c-5.303,0-8.168,3.174-8.168,8.265V771.617z M351.56,771.617c0,5.308,3.389,8.274,7.948,8.274
		c4.56,0,7.949-2.967,7.949-8.274v-60.22c0-5.303-3.389-8.271-7.949-8.271c-4.559,0-7.948,2.968-7.948,8.271V771.617z
		 M305.964,719.034h0.214l9.862,30.746h-20.143L305.964,719.034z M273.417,768.97c-0.215,0.525-0.744,1.801-0.744,3.497
		c0,4.242,3.604,7.424,7.848,7.424c4.345,0,6.574-2.336,7.632-5.618l3.186-9.863h29.47l3.18,9.966
		c1.059,3.18,3.287,5.516,7.744,5.516c3.919,0,7.318-2.866,7.318-6.997c0-0.744-0.218-2.23-0.855-3.924l-20.777-57.677
		c-1.807-5.095-5.73-8.802-11.349-8.802c-5.408,0-9.541,3.922-11.342,8.802L273.417,768.97z"/>
</g>
</svg>
