<?xml version="1.0" encoding="utf-8"?>
<!-- Generator: Adobe Illustrator 15.0.2, SVG Export Plug-In . SVG Version: 6.00 Build 0)  -->
<!DOCTYPE svg PUBLIC "-//W3C//DTD SVG 1.1//EN" "http://www.w3.org/Graphics/SVG/1.1/DTD/svg11.dtd">
<svg version="1.1" id="Layer_1" xmlns="http://www.w3.org/2000/svg" xmlns:xlink="http://www.w3.org/1999/xlink" viewBox="0 0 141.732 31.181" enable-background="new 0 0 141.732 31.181"
	 xml:space="preserve">
<g>
	<defs>
		<rect id="SVGID_1_" width="141.732" height="31.181"/>
	</defs>
	<clipPath id="SVGID_2_">
		<use xlink:href="#SVGID_1_"  overflow="visible"/>
	</clipPath>
	<g clip-path="url(#SVGID_2_)">
		<path fill="#C21731" d="M4.087,4.213c0.468-0.468,1.026-0.702,1.674-0.702s1.206,0.234,1.674,0.702
			C7.903,4.682,8.137,5.24,8.137,5.888S7.903,7.094,7.435,7.562C6.967,8.029,6.409,8.264,5.761,8.264S4.555,8.029,4.087,7.562
			S3.385,6.536,3.385,5.888S3.619,4.682,4.087,4.213z M4.141,11.936h3.24V29h-3.24V11.936z"/>
		<path fill="#C21731" d="M12.529,11.936h3.24v2.984h0.072c0.408-0.889,1.116-1.609,2.124-2.159c1.008-0.55,2.172-0.825,3.492-0.825
			c0.84,0,1.632,0.123,2.376,0.369c0.744,0.246,1.398,0.626,1.962,1.141c0.564,0.515,1.014,1.176,1.35,1.984
			c0.336,0.808,0.504,1.761,0.504,2.861V29h-3.24V19.22c0-0.769-0.108-1.426-0.324-1.973c-0.216-0.547-0.504-0.99-0.864-1.327
			c-0.36-0.338-0.774-0.583-1.242-0.734c-0.468-0.151-0.954-0.227-1.458-0.227c-0.672,0-1.296,0.105-1.872,0.314
			c-0.576,0.21-1.08,0.542-1.512,0.996c-0.432,0.454-0.769,1.03-1.008,1.729c-0.24,0.698-0.36,1.524-0.36,2.479V29h-3.24V11.936z"/>
		<path fill="#C21731" d="M33.805,14.744h-3.672v-2.808h3.672v-3.66c0-2.187,0.438-3.815,1.314-4.886
			c0.876-1.071,2.382-1.606,4.518-1.606c0.36,0,0.738,0,1.134,0s0.822,0,1.278,0l-0.36,3.132c-0.312-0.12-0.612-0.204-0.9-0.252
			c-0.288-0.048-0.6-0.072-0.936-0.072c-0.6,0-1.08,0.086-1.44,0.255c-0.36,0.17-0.636,0.414-0.828,0.731
			c-0.192,0.317-0.324,0.697-0.396,1.139c-0.072,0.442-0.108,0.946-0.108,1.513v3.706h3.852v2.808h-3.888V29h-3.24V14.744z"/>
		<path fill="#C21731" d="M43.182,17.127c0.468-1.04,1.11-1.942,1.926-2.707c0.815-0.765,1.776-1.371,2.88-1.816
			c1.104-0.446,2.292-0.668,3.564-0.668c1.272,0,2.46,0.223,3.564,0.668c1.104,0.445,2.064,1.051,2.88,1.816
			c0.815,0.765,1.458,1.667,1.926,2.707s0.702,2.153,0.702,3.34c0,1.188-0.234,2.296-0.702,3.324s-1.11,1.931-1.926,2.707
			c-0.816,0.776-1.776,1.388-2.88,1.833S52.824,29,51.552,29c-1.272,0-2.46-0.223-3.564-0.668c-1.104-0.445-2.064-1.057-2.88-1.833
			c-0.816-0.776-1.458-1.679-1.926-2.707c-0.468-1.028-0.702-2.136-0.702-3.324C42.48,19.28,42.714,18.167,43.182,17.127z
			 M46.333,22.688c0.264,0.679,0.635,1.258,1.116,1.735c0.48,0.479,1.068,0.856,1.764,1.135c0.696,0.278,1.476,0.417,2.34,0.417
			c0.864,0,1.644-0.139,2.34-0.417c0.696-0.278,1.283-0.656,1.764-1.135c0.48-0.478,0.852-1.057,1.116-1.735
			c0.264-0.68,0.396-1.42,0.396-2.221s-0.132-1.54-0.396-2.22c-0.265-0.679-0.636-1.257-1.116-1.735
			c-0.48-0.479-1.068-0.857-1.764-1.135c-0.697-0.278-1.476-0.417-2.34-0.417c-0.864,0-1.644,0.14-2.34,0.417
			c-0.696,0.278-1.284,0.657-1.764,1.135c-0.48,0.478-0.852,1.057-1.116,1.735c-0.265,0.68-0.396,1.419-0.396,2.22
			S46.068,22.008,46.333,22.688z"/>
		<path fill="#C21731" d="M64.692,11.936h3.24v2.984h0.072c0.408-0.889,1.116-1.609,2.124-2.159s2.172-0.825,3.492-0.825
			c0.84,0,1.632,0.123,2.376,0.369c0.744,0.246,1.397,0.626,1.962,1.141c0.563,0.515,1.014,1.176,1.351,1.984
			c0.335,0.808,0.504,1.761,0.504,2.861V29h-3.24V19.22c0-0.769-0.108-1.426-0.324-1.973s-0.504-0.99-0.864-1.327
			c-0.359-0.338-0.773-0.583-1.241-0.734c-0.469-0.151-0.954-0.227-1.458-0.227c-0.673,0-1.297,0.105-1.873,0.314
			c-0.576,0.21-1.08,0.542-1.512,0.996c-0.432,0.454-0.769,1.03-1.008,1.729c-0.24,0.698-0.36,1.524-0.36,2.479V29h-3.24V11.936z"/>
		<path fill="#C21731" d="M84.582,17.127c0.468-1.04,1.109-1.942,1.926-2.707c0.815-0.765,1.775-1.371,2.88-1.816
			c1.104-0.446,2.292-0.668,3.564-0.668c1.271,0,2.459,0.223,3.563,0.668c1.104,0.445,2.063,1.051,2.88,1.816
			c0.815,0.765,1.458,1.667,1.926,2.707c0.469,1.04,0.702,2.153,0.702,3.34c0,1.188-0.233,2.296-0.702,3.324
			c-0.468,1.028-1.11,1.931-1.926,2.707c-0.816,0.776-1.776,1.388-2.88,1.833C95.411,28.777,94.224,29,92.952,29
			c-1.272,0-2.461-0.223-3.564-0.668c-1.104-0.445-2.064-1.057-2.88-1.833c-0.816-0.776-1.458-1.679-1.926-2.707
			c-0.469-1.028-0.702-2.136-0.702-3.324C83.88,19.28,84.113,18.167,84.582,17.127z M87.731,22.688
			c0.264,0.679,0.636,1.258,1.116,1.735c0.479,0.479,1.067,0.856,1.764,1.135s1.477,0.417,2.341,0.417
			c0.863,0,1.644-0.139,2.34-0.417c0.695-0.278,1.283-0.656,1.764-1.135c0.479-0.478,0.852-1.057,1.116-1.735
			c0.264-0.68,0.396-1.42,0.396-2.221s-0.132-1.54-0.396-2.22c-0.265-0.679-0.637-1.257-1.116-1.735
			c-0.48-0.479-1.068-0.857-1.764-1.135c-0.696-0.278-1.477-0.417-2.34-0.417c-0.864,0-1.645,0.14-2.341,0.417
			c-0.696,0.278-1.284,0.657-1.764,1.135c-0.48,0.478-0.853,1.057-1.116,1.735c-0.264,0.68-0.396,1.419-0.396,2.22
			S87.468,22.008,87.731,22.688z"/>
		<path fill="#C21731" d="M104.04,11.936h3.743l5.112,13.068l4.896-13.068h3.455L114.552,29h-3.564L104.04,11.936z"/>
		<path fill="#C21731" d="M124.163,14.456c0.912-0.84,1.968-1.47,3.169-1.89c1.199-0.419,2.399-0.63,3.6-0.63
			c1.271,0,2.358,0.152,3.258,0.457c0.9,0.305,1.638,0.714,2.214,1.229c0.576,0.516,0.996,1.106,1.26,1.773
			c0.265,0.667,0.396,1.364,0.396,2.089v8.497c0,0.585,0.012,1.123,0.036,1.615c0.023,0.491,0.06,0.96,0.107,1.404h-2.88
			c-0.071-0.96-0.107-1.919-0.107-2.878h-0.072c-0.72,1.051-1.572,1.793-2.556,2.228c-0.984,0.434-2.124,0.65-3.42,0.65
			c-0.792,0-1.543-0.109-2.25-0.328c-0.709-0.219-1.332-0.536-1.872-0.951s-0.973-0.929-1.296-1.539
			c-0.324-0.611-0.486-1.31-0.486-2.094c0-1.06,0.246-1.947,0.738-2.662c0.491-0.716,1.163-1.298,2.016-1.747
			c0.852-0.45,1.848-0.772,2.988-0.969c1.14-0.195,2.357-0.294,3.653-0.294h2.376v-0.648c0-0.389-0.084-0.777-0.252-1.166
			s-0.42-0.74-0.756-1.053c-0.336-0.313-0.756-0.562-1.26-0.745c-0.504-0.184-1.104-0.276-1.8-0.276c-0.625,0-1.17,0.061-1.639,0.18
			c-0.468,0.121-0.894,0.27-1.277,0.45c-0.385,0.18-0.732,0.39-1.044,0.63c-0.313,0.24-0.612,0.468-0.9,0.684L124.163,14.456z
			 M133.308,20.792c-0.769,0-1.555,0.039-2.358,0.117s-1.536,0.229-2.195,0.451c-0.661,0.223-1.201,0.529-1.62,0.92
			c-0.421,0.39-0.63,0.908-0.63,1.554c0,0.914,0.329,1.571,0.989,1.973s1.554,0.602,2.683,0.602c0.911,0,1.674-0.139,2.286-0.418
			c0.611-0.278,1.109-0.641,1.493-1.086c0.384-0.446,0.66-0.942,0.828-1.488s0.252-1.086,0.252-1.621v-1.003H133.308z"/>
	</g>
</g>
</svg>
