<?xml version="1.0" encoding="utf-8"?>
<!-- Generator: Adobe Illustrator 15.0.2, SVG Export Plug-In . SVG Version: 6.00 Build 0)  -->
<!DOCTYPE svg PUBLIC "-//W3C//DTD SVG 1.1//EN" "http://www.w3.org/Graphics/SVG/1.1/DTD/svg11.dtd">
<svg version="1.1" id="Ebene_1" xmlns="http://www.w3.org/2000/svg" xmlns:xlink="http://www.w3.org/1999/xlink" viewBox="0 0 495.361 312.289" enable-background="new 0 0 495.361 312.289"
	 xml:space="preserve">
<g>
	<path fill="#004F91" d="M243.289,32.856h-31.6c11.936,5.737,22.293,14.232,30.278,24.641h1.322
		c28.021,0,50.807,22.796,50.807,50.816c0,28.012-22.786,50.805-50.807,50.805h-1.322c-7.984,10.408-18.339,18.904-30.278,24.641
		h31.6c41.608,0,75.455-33.845,75.455-75.446C318.744,66.705,284.896,32.856,243.289,32.856z"/>
	<path d="M175.556,32.856l-49.288-0.002v202.895c0,28.02-22.796,50.813-50.814,50.813c-28.02,0-50.812-22.793-50.812-50.813H0
		c0,41.607,33.85,75.456,75.454,75.456c41.606,0,75.455-33.849,75.455-75.456V57.497h24.647c28.021,0,50.817,22.796,50.817,50.816
		c0,28.012-22.796,50.805-50.817,50.805h-16.427v24.641h16.427c41.61,0,75.455-33.845,75.455-75.446
		C251.011,66.705,217.166,32.856,175.556,32.856z"/>
	<polygon fill="#AE0F0A" points="150.909,24.644 126.268,24.644 126.268,0 150.909,0 150.909,24.644 	"/>
	<g>
		<path d="M192.945,209.676v30.405c0,6.918-5.598,9.882-11.471,9.882c-11.583,0-12.079-4.829-12.079-13.831h8.457
			c0,3.182-0.714,7.901,3.622,7.901c1.867,0,3.183-1.7,3.183-3.402v-30.955H192.945z"/>
		<path d="M199.473,249.301v-39.625h8.287v39.625H199.473z"/>
		<path d="M214.783,209.676h14.931c7.572,0,10.537,4.612,10.537,11.857c0,4.498-1.316,11.634-11.032,11.634h-6.145v16.134h-8.291
			V209.676z M223.073,227.075h4.611c2.466,0,4.171-2.69,4.171-5.324c0-3.236-0.882-5.982-4.611-5.982h-4.171V227.075z"/>
		<path d="M245.299,209.676h14.929c7.573,0,10.538,4.612,10.538,11.857c0,4.498-1.318,11.634-11.035,11.634h-6.145v16.134h-8.287
			V209.676z M253.586,227.075h4.61c2.472,0,4.168-2.69,4.168-5.324c0-3.236-0.877-5.982-4.604-5.982h-4.175V227.075z"/>
		<path d="M275.593,242.06v7.241h-6.587v-7.241H275.593z"/>
		<path d="M281.846,249.301v-39.625h8.291v39.625H281.846z"/>
		<path d="M320.708,209.676v6.587h-9.22v33.038h-8.291v-33.038h-9.22v-6.587H320.708z"/>
	</g>
	<g>
		<path d="M171.341,276.405c0,2.008,0.2,4.116,2.737,4.116c1.478,0,2.786-0.751,2.786-3.134v-13.979h1.605v14.204
			c0,4.267-3.865,4.267-4.417,4.267c-3.967,0-4.316-2.862-4.316-5.474H171.341z"/>
		<path d="M189.835,268.853v12.675h-1.307v-1.407h-0.049c-0.879,1.078-1.781,1.656-3.187,1.656c-2.61,0-3.34-1.905-3.34-3.965
			v-8.959h1.507v8.706c0,0.352-0.076,3.015,2.109,3.015c2.032,0,2.76-1.909,2.76-2.786v-8.935H189.835z"/>
		<path d="M196.354,281.777c-2.737,0-3.814-1.333-3.79-4.015h1.53c0,1.73,0.403,2.885,2.333,2.885c1.458,0,2.161-0.828,2.161-2.234
			c0-3.313-5.697-2.46-5.697-6.65c0-2.333,1.605-3.164,3.813-3.164c2.509,0,3.314,1.736,3.314,3.669h-1.482
			c-0.077-1.609-0.5-2.463-2.208-2.463c-1.081,0-1.933,0.708-1.933,1.832c0,3.159,5.697,2.313,5.697,6.552
			C200.093,280.574,198.712,281.777,196.354,281.777z"/>
		<path d="M201.622,270.057v-1.204h2.032v-2.613l1.507-0.652v3.266h2.56v1.204h-2.56v8.131c0,1.684,0.175,2.084,1.377,2.084
			c0.505,0,0.854-0.025,1.182-0.077v1.306c-0.451,0.049-0.954,0.079-1.43,0.079c-2.035,0-2.637-0.904-2.637-2.466v-9.057H201.622z"
			/>
		<path d="M217.353,263.408v18.12h-1.607v-18.12H217.353z"/>
		<path d="M222.371,281.528h-1.508v-12.675h1.508v1.555h0.049c0.724-1.053,1.706-1.81,3.06-1.81c3.137,0,3.465,2.336,3.465,3.996
			v8.934h-1.51v-8.86c0-1.48-0.574-2.863-2.331-2.863c-1.359,0-2.734,0.927-2.734,3.766V281.528z"/>
		<path d="M233.506,281.528h-1.504v-12.675h1.504v1.555h0.049c0.729-1.053,1.706-1.81,3.063-1.81c3.14,0,3.463,2.336,3.463,3.996
			v8.934h-1.505v-8.86c0-1.48-0.576-2.863-2.335-2.863c-1.353,0-2.735,0.927-2.735,3.766V281.528z"/>
		<path d="M242.813,276.559v-2.74c0-3.284,1.407-5.221,4.369-5.221s4.367,1.937,4.367,5.221v2.74c0,3.288-1.406,5.218-4.367,5.218
			S242.813,279.847,242.813,276.559z M244.316,275.176c0,3.316,0.377,5.397,2.865,5.397c2.483,0,2.86-2.081,2.86-5.397
			c0-3.291-0.377-5.372-2.86-5.372C244.694,269.804,244.316,271.885,244.316,275.176z"/>
		<path d="M257.667,279.616h0.048l3.088-10.763h1.458l-3.765,12.675h-1.734l-3.764-12.675h1.633L257.667,279.616z"/>
		<path d="M270.587,279.97h-0.049c-0.807,1.203-2.038,1.807-3.593,1.807c-2.253,0-3.485-1.53-3.485-3.74
			c0-4.442,4.464-3.99,7.025-4.193v-1.053c0-1.856-0.551-2.986-2.562-2.986c-1.379,0-2.484,0.678-2.484,2.187h-1.604
			c0.125-2.436,2.004-3.393,4.213-3.393c1.282,0,3.942,0.126,3.942,3.364v6.376c0,0.902,0,1.705,0.152,3.189h-1.556V279.97z
			 M270.486,275.047c-2.158,0.08-5.42-0.173-5.42,2.915c0,1.432,0.725,2.611,2.283,2.611c1.729,0,3.137-1.558,3.137-3.214V275.047z"
			/>
		<path d="M274.044,270.057v-1.204h2.032v-2.613l1.508-0.652v3.266h2.558v1.204h-2.558v8.131c0,1.684,0.172,2.084,1.379,2.084
			c0.5,0,0.85-0.025,1.179-0.077v1.306c-0.449,0.049-0.951,0.079-1.428,0.079c-2.038,0-2.638-0.904-2.638-2.466v-9.057H274.044z"/>
		<path d="M282.475,265.313v-1.905h1.861v1.905H282.475z M282.654,281.528v-12.675h1.504v12.675H282.654z"/>
		<path d="M291.106,279.616h0.049l3.087-10.763h1.457l-3.764,12.675h-1.735l-3.765-12.675h1.632L291.106,279.616z"/>
		<path d="M298.658,275.503v0.979c0,1.758,0.476,4.092,2.863,4.092c1.878,0,2.805-1.207,2.782-2.909h1.581
			c-0.172,3.063-1.829,4.112-4.362,4.112c-2.186,0-4.368-0.877-4.368-4.719v-3.109c0-3.667,1.53-5.351,4.368-5.351
			c4.362,0,4.362,3.14,4.362,6.905H298.658z M304.377,274.299c0-2.811-0.449-4.495-2.857-4.495c-2.412,0-2.863,1.685-2.863,4.495
			H304.377z"/>
		<path d="M314.26,263.408h4.969c1.504,0,3.993,0.196,3.993,4.39c0,3.642-1.182,5.298-4.294,5.298h-3.063v8.433h-1.604V263.408z
			 M315.864,271.738h2.989c1.684,0,2.763-0.804,2.763-3.639c0-3.088-1.334-3.34-2.788-3.34h-2.964V271.738z"/>
		<path d="M326.503,275.503v0.979c0,1.758,0.479,4.092,2.86,4.092c1.884,0,2.811-1.207,2.785-2.909h1.581
			c-0.172,3.063-1.831,4.112-4.366,4.112c-2.186,0-4.371-0.877-4.371-4.719v-3.109c0-3.667,1.539-5.351,4.371-5.351
			c4.366,0,4.366,3.14,4.366,6.905H326.503z M332.223,274.299c0-2.811-0.45-4.495-2.86-4.495c-2.409,0-2.86,1.685-2.86,4.495
			H332.223z"/>
		<path d="M336.134,276.559v-2.74c0-3.284,1.405-5.221,4.367-5.221c2.96,0,4.369,1.937,4.369,5.221v2.74
			c0,3.288-1.408,5.218-4.369,5.218C337.54,281.777,336.134,279.847,336.134,276.559z M337.641,275.176
			c0,3.316,0.375,5.397,2.86,5.397s2.858-2.081,2.858-5.397c0-3.291-0.374-5.372-2.858-5.372S337.641,271.885,337.641,275.176z"/>
		<path d="M349.106,270.383l0.052-0.024c0.8-1.231,2.056-1.761,3.06-1.761c3.965,0,3.99,3.466,3.99,5.125v2.836
			c0,3.288-1.13,5.218-4.366,5.218c-0.933,0-1.859-0.452-2.635-1.656l-0.049-0.027v6.23h-1.509v-17.471h1.457V270.383z
			 M349.158,276.306c0,2.885,1.3,4.268,2.684,4.268c2.481,0,2.855-2.081,2.855-5.397c0-3.291-0.374-5.372-2.855-5.372
			c-0.979,0-2.684,1.105-2.684,4.242V276.306z"/>
		<path d="M359.24,281.528v-18.12h1.505v18.12H359.24z"/>
		<path d="M365.487,275.503v0.979c0,1.758,0.476,4.092,2.863,4.092c1.879,0,2.806-1.207,2.782-2.909h1.584
			c-0.176,3.063-1.832,4.112-4.366,4.112c-2.184,0-4.367-0.877-4.367-4.719v-3.109c0-3.667,1.528-5.351,4.367-5.351
			c4.366,0,4.366,3.14,4.366,6.905H365.487z M371.205,274.299c0-2.811-0.448-4.495-2.855-4.495c-2.412,0-2.863,1.685-2.863,4.495
			H371.205z"/>
		<path d="M387.567,279.97h-0.051c-0.805,1.203-2.035,1.807-3.592,1.807c-2.26,0-3.487-1.53-3.487-3.74
			c0-4.442,4.462-3.99,7.03-4.193v-1.053c0-1.856-0.554-2.986-2.567-2.986c-1.375,0-2.479,0.678-2.479,2.187h-1.609
			c0.129-2.436,2.007-3.393,4.218-3.393c1.281,0,3.94,0.126,3.94,3.364v6.376c0,0.902,0,1.705,0.154,3.189h-1.556V279.97z
			 M387.467,275.047c-2.161,0.08-5.421-0.173-5.421,2.915c0,1.432,0.723,2.611,2.278,2.611c1.733,0,3.143-1.558,3.143-3.214V275.047
			z"/>
		<path d="M393.659,281.528h-1.509v-12.675h1.509v1.555h0.052c0.727-1.053,1.706-1.81,3.057-1.81c3.144,0,3.467,2.336,3.467,3.996
			v8.934h-1.505v-8.86c0-1.48-0.579-2.863-2.337-2.863c-1.352,0-2.733,0.927-2.733,3.766V281.528z"/>
		<path d="M409.941,279.92l-0.049,0.021c-0.779,1.207-1.733,1.835-3.214,1.835c-3.661,0-3.864-3.642-3.864-6.601
			c0-2.438,0-6.578,3.892-6.578c1.154,0,2.284,0.529,3.057,1.508l0.052,0.025v-6.724h1.504v15.608c0,1.256,0.077,2.084,0.154,2.512
			h-1.455L409.941,279.92z M409.867,276.332v-2.26c0-0.751,0-4.268-2.838-4.268c-2.712,0-2.712,2.463-2.712,5.422
			c0,4.716,1.13,5.348,2.765,5.348C408.512,280.574,409.867,279.418,409.867,276.332z"/>
		<path d="M420.076,263.408h4.962c1.512,0,3.995,0.196,3.995,4.39c0,3.642-1.179,5.298-4.292,5.298h-3.06v8.433h-1.605V263.408z
			 M421.681,271.738h2.984c1.681,0,2.762-0.804,2.762-3.639c0-3.088-1.33-3.34-2.786-3.34h-2.96V271.738z"/>
		<path d="M432.741,270.559h0.052c0.628-1.204,1.955-1.961,3.488-1.961v1.533c-2.132-0.179-3.54,1.104-3.54,3.241v8.155h-1.505
			v-12.675h1.505V270.559z"/>
		<path d="M437.783,276.559v-2.74c0-3.284,1.409-5.221,4.369-5.221c2.964,0,4.367,1.937,4.367,5.221v2.74
			c0,3.288-1.402,5.218-4.367,5.218C439.192,281.777,437.783,279.847,437.783,276.559z M439.293,275.176
			c0,3.316,0.374,5.397,2.858,5.397s2.86-2.081,2.86-5.397c0-3.291-0.375-5.372-2.86-5.372S439.293,271.885,439.293,275.176z"/>
		<path d="M455.9,279.92l-0.051,0.021c-0.78,1.207-1.731,1.835-3.211,1.835c-3.665,0-3.868-3.642-3.868-6.601
			c0-2.438,0-6.578,3.893-6.578c1.153,0,2.279,0.529,3.06,1.508l0.049,0.025v-6.724h1.507v15.608c0,1.256,0.077,2.084,0.151,2.512
			h-1.456L455.9,279.92z M455.825,276.332v-2.26c0-0.751,0-4.268-2.837-4.268c-2.709,0-2.709,2.463-2.709,5.422
			c0,4.716,1.129,5.348,2.758,5.348C454.469,280.574,455.825,279.418,455.825,276.332z"/>
		<path d="M468.369,268.853v12.675h-1.307v-1.407h-0.049c-0.877,1.078-1.784,1.656-3.185,1.656c-2.61,0-3.34-1.905-3.34-3.965
			v-8.959h1.51v8.706c0,0.352-0.077,3.015,2.106,3.015c2.032,0,2.763-1.909,2.763-2.786v-8.935H468.369z"/>
		<path d="M477.173,272.493c0.074-1.583-0.505-2.688-2.232-2.688c-0.93,0-1.707,0.53-2.035,1.457
			c-0.2,0.575-0.351,2.309-0.351,3.989c0,2.284,0,5.323,2.336,5.323c1.979,0,2.229-1.257,2.306-2.786h1.509
			c0.12,3.411-2.286,3.989-3.468,3.989c-4.29,0-4.29-3.39-4.29-6.526c0-1.253,0.053-3.235,0.374-4.193
			c0.658-1.804,2.083-2.459,3.819-2.459c2.181,0,3.66,1.231,3.54,3.895H477.173z"/>
		<path d="M480.156,270.057v-1.204h2.032v-2.613l1.504-0.652v3.266h2.563v1.204h-2.563v8.131c0,1.684,0.177,2.084,1.381,2.084
			c0.503,0,0.853-0.025,1.182-0.077v1.306c-0.456,0.049-0.958,0.079-1.435,0.079c-2.032,0-2.632-0.904-2.632-2.466v-9.057H480.156z"
			/>
		<path d="M491.621,281.777c-2.736,0-3.815-1.333-3.792-4.015h1.533c0,1.73,0.405,2.885,2.335,2.885
			c1.455,0,2.158-0.828,2.158-2.234c0-3.313-5.694-2.46-5.694-6.65c0-2.333,1.605-3.164,3.814-3.164
			c2.509,0,3.309,1.736,3.309,3.669h-1.479c-0.076-1.609-0.503-2.463-2.209-2.463c-1.078,0-1.932,0.708-1.932,1.832
			c0,3.162,5.697,2.313,5.697,6.552C495.361,280.574,493.98,281.777,491.621,281.777z"/>
		<path d="M173.322,289.277V307.4h-1.605v-18.123H173.322z"/>
		<path d="M178.34,307.4h-1.507v-12.678h1.507v1.558h0.049c0.731-1.053,1.71-1.804,3.06-1.804c3.14,0,3.468,2.327,3.468,3.986v8.938
			h-1.508v-8.863c0-1.478-0.576-2.863-2.333-2.863c-1.358,0-2.735,0.933-2.735,3.769V307.4z"/>
		<path d="M188.951,295.929h-2.032v-1.207h2.032v-2.133c0-1.207,0.178-3.414,3.238-3.414c0.225,0,0.48,0.049,0.853,0.102v1.256
			h-1.128c-1.455,0-1.455,1.305-1.455,2.031v2.158h2.558v1.207h-2.558V307.4h-1.508V295.929z"/>
		<path d="M194.624,302.431v-2.737c0-3.287,1.406-5.218,4.364-5.218c2.963,0,4.367,1.931,4.367,5.218v2.737
			c0,3.285-1.404,5.218-4.367,5.218C196.03,307.649,194.624,305.716,194.624,302.431z M196.126,301.045c0,3.315,0.375,5.4,2.861,5.4
			c2.486,0,2.862-2.085,2.862-5.4c0-3.287-0.375-5.372-2.862-5.372C196.502,295.673,196.126,297.758,196.126,301.045z"/>
		<path d="M207.693,296.428h0.049c0.626-1.201,1.961-1.952,3.491-1.952v1.53c-2.133-0.179-3.54,1.105-3.54,3.235v8.161h-1.507
			v-12.681h1.507V296.428z"/>
		<path d="M214.541,307.403h-1.504v-12.705h1.353v1.582h0.052c0.599-1.028,1.605-1.804,3.012-1.804c1.302,0,2.457,0.727,2.885,1.977
			c0.625-1.25,1.706-1.977,3.115-1.977c2.106,0,3.211,1.453,3.287,3.485v9.441h-1.51v-9.066c-0.024-1.25-0.476-2.663-1.955-2.663
			c-1.912,0-2.637,1.912-2.637,3.568v8.161h-1.504v-9.066c-0.025-1.25-0.476-2.663-1.958-2.663c-1.906,0-2.637,1.912-2.637,3.568
			V307.403z"/>
		<path d="M236.345,305.845h-0.052c-0.801,1.2-2.032,1.804-3.586,1.804c-2.26,0-3.488-1.529-3.488-3.74
			c0-4.439,4.467-3.986,7.027-4.189v-1.057c0-1.859-0.549-2.989-2.56-2.989c-1.382,0-2.488,0.684-2.488,2.187h-1.604
			c0.126-2.433,2.007-3.384,4.218-3.384c1.279,0,3.94,0.12,3.94,3.358v6.373c0,0.908,0,1.708,0.151,3.195h-1.558V305.845z
			 M236.245,300.919c-2.155,0.077-5.42-0.172-5.42,2.912c0,1.438,0.724,2.614,2.28,2.614c1.735,0,3.14-1.558,3.14-3.214V300.919z"/>
		<path d="M239.805,295.929v-1.207h2.032v-2.607l1.504-0.655v3.263h2.563v1.207h-2.563v8.131c0,1.684,0.177,2.084,1.38,2.084
			c0.505,0,0.853-0.024,1.183-0.077v1.309c-0.454,0.046-0.958,0.076-1.433,0.076c-2.032,0-2.634-0.904-2.634-2.466v-9.057H239.805z"
			/>
		<path d="M248.234,291.188v-1.911h1.856v1.911H248.234z M248.411,307.403v-12.681h1.504v12.681H248.411z"/>
		<path d="M253.15,302.431v-2.737c0-3.287,1.407-5.218,4.366-5.218c2.964,0,4.367,1.931,4.367,5.218v2.737
			c0,3.285-1.402,5.218-4.367,5.218C254.557,307.649,253.15,305.716,253.15,302.431z M254.654,301.045c0,3.315,0.38,5.4,2.862,5.4
			c2.484,0,2.863-2.085,2.863-5.4c0-3.287-0.378-5.372-2.863-5.372C255.035,295.673,254.654,297.758,254.654,301.045z"/>
		<path d="M266.119,307.403h-1.504v-12.681h1.504v1.558h0.053c0.731-1.053,1.707-1.804,3.063-1.804c3.135,0,3.462,2.327,3.462,3.986
			v8.94h-1.504v-8.866c0-1.478-0.577-2.863-2.335-2.863c-1.355,0-2.739,0.933-2.739,3.769V307.403z"/>
		<path d="M283.295,290.634h-4.417v-1.357h10.442v1.357h-4.421v16.769h-1.604V290.634z"/>
		<path d="M290.521,301.378v0.976c0,1.758,0.474,4.092,2.863,4.092c1.878,0,2.805-1.207,2.78-2.913h1.585
			c-0.176,3.063-1.833,4.116-4.366,4.116c-2.186,0-4.368-0.877-4.368-4.719v-3.109c0-3.667,1.53-5.345,4.368-5.345
			c4.366,0,4.366,3.134,4.366,6.902H290.521z M296.241,300.168c0-2.811-0.449-4.495-2.857-4.495c-2.414,0-2.863,1.685-2.863,4.495
			H296.241z"/>
		<path d="M306.125,298.365c0.077-1.586-0.5-2.691-2.233-2.691c-0.927,0-1.707,0.53-2.032,1.463
			c-0.203,0.569-0.348,2.306-0.348,3.986c0,2.287,0,5.323,2.331,5.323c1.979,0,2.235-1.253,2.311-2.786h1.504
			c0.126,3.411-2.288,3.989-3.462,3.989c-4.296,0-4.296-3.39-4.296-6.526c0-1.25,0.051-3.238,0.378-4.189
			c0.656-1.811,2.084-2.457,3.816-2.457c2.186,0,3.665,1.226,3.539,3.889H306.125z"/>
		<path d="M310.236,307.403v-18.126h1.509v7.003h0.049c0.725-1.053,1.704-1.804,3.06-1.804c3.137,0,3.466,2.327,3.466,3.986v8.94
			h-1.512v-8.866c0-1.478-0.576-2.863-2.329-2.863c-1.356,0-2.735,0.933-2.735,3.769v7.961H310.236z"/>
		<path d="M322.879,307.403h-1.502v-12.681h1.502v1.558h0.049c0.728-1.053,1.712-1.804,3.063-1.804c3.14,0,3.466,2.327,3.466,3.986
			v8.94h-1.507v-8.866c0-1.478-0.578-2.863-2.332-2.863c-1.354,0-2.74,0.933-2.74,3.769V307.403z"/>
		<path d="M332.186,302.431v-2.737c0-3.287,1.407-5.218,4.369-5.218c2.958,0,4.368,1.931,4.368,5.218v2.737
			c0,3.285-1.41,5.218-4.368,5.218C333.593,307.649,332.186,305.716,332.186,302.431z M333.694,301.045c0,3.315,0.374,5.4,2.86,5.4
			c2.484,0,2.857-2.085,2.857-5.4c0-3.287-0.373-5.372-2.857-5.372C334.068,295.673,333.694,297.758,333.694,301.045z"/>
		<path d="M344.159,307.403v-18.126h1.502v18.126H344.159z"/>
		<path d="M348.893,302.431v-2.737c0-3.287,1.41-5.218,4.369-5.218c2.961,0,4.365,1.931,4.365,5.218v2.737
			c0,3.285-1.404,5.218-4.365,5.218C350.303,307.649,348.893,305.716,348.893,302.431z M350.399,301.045
			c0,3.315,0.378,5.4,2.863,5.4c2.48,0,2.86-2.085,2.86-5.4c0-3.287-0.38-5.372-2.86-5.372
			C350.777,295.673,350.399,297.758,350.399,301.045z"/>
		<path d="M366.987,294.698h1.479c-0.052,1.207-0.077,1.835-0.077,2.484v10.667c0,2.786-0.85,4.439-4.468,4.439
			c-3.162,0-3.792-2.229-3.69-3.507h1.505c-0.095,1.45,0.985,2.307,2.386,2.307c2.938,0,2.761-1.58,2.761-5.372h-0.049
			c-0.656,1.08-1.855,1.532-3.06,1.532c-3.645,0-3.893-3.137-3.893-5.947c0-2.937,0.027-2.965,0.374-4.319
			c0.126-0.529,1.003-2.506,3.571-2.506c1.276,0,2.555,0.646,3.109,1.776l0.051,0.053V294.698z M361.389,300.772
			c0,2.638,0,5.271,2.734,5.271c1.256,0,2.056-0.825,2.284-1.429c0.378-0.985,0.477-1.561,0.477-5.268
			c0-2.666-1.428-3.673-2.837-3.673C361.438,295.673,361.389,298.887,361.389,300.772z"/>
		<path d="M374.231,307.421l-4.015-12.699h1.633l3.088,10.394h0.049l2.983-10.394h1.51l-5.249,17.471h-1.479L374.231,307.421z"/>
	</g>
</g>
</svg>
