<?xml version="1.0" encoding="utf-8"?>
<!-- Generator: Adobe Illustrator 15.0.2, SVG Export Plug-In . SVG Version: 6.00 Build 0)  -->
<!DOCTYPE svg PUBLIC "-//W3C//DTD SVG 1.1//EN" "http://www.w3.org/Graphics/SVG/1.1/DTD/svg11.dtd">
<svg version="1.1" id="Layer_1" xmlns="http://www.w3.org/2000/svg" xmlns:xlink="http://www.w3.org/1999/xlink" viewBox="0 0 820 435.794" enable-background="new 0 0 820 435.794" xml:space="preserve">
<rect fill="#831527" width="820" height="435.794"/>
<g>
	<defs>
		<rect id="SVGID_1_" width="820" height="435.794"/>
	</defs>
	<clipPath id="SVGID_2_">
		<use xlink:href="#SVGID_1_"  overflow="visible"/>
	</clipPath>
	<path clip-path="url(#SVGID_2_)" fill="#FFFFFF" d="M509.697,165.284c-18.468,0-33.097,3.071-43.492,7.686v97.957h30.018v-57.303
		v-2.127h-7.838v-6.063v-15.646l0.008-1.38c0,0,6.848-4.591,20.536-4.469c12.117,0.116,15.397,7.122,15.397,14.432v72.556h30.015
		v-72.748C554.341,179.319,542.599,165.284,509.697,165.284"/>
	<path clip-path="url(#SVGID_2_)" fill="#FFFFFF" d="M406.171,272.84c-36.958,0-51.774-30.593-51.774-68.106
		c0-37.347,14.816-68.13,51.774-68.13c36.947,0,51.758,30.783,51.758,68.13C457.93,242.247,443.118,272.84,406.171,272.84
		 M406.171,157.193c-16.748,0-20.019,23.858-20.019,46.375c0,22.698,3.084,46.372,20.019,46.372
		c17.124,0,20.008-23.674,20.008-46.372C426.18,181.051,422.72,157.193,406.171,157.193"/>
	<path clip-path="url(#SVGID_2_)" fill="#FFFFFF" d="M652.479,220.702l-62.16,8.852c2.124,15.193,9.821,22.699,25.027,22.699
		c12.12,0,21.357-2.695,26.936-5.574l6.923,18.662c-8.274,4.227-19.818,7.498-37.34,7.498c-31.741,0-50.025-20.971-50.025-54.075
		c0-32.51,16.936-53.48,46.771-53.48c29.828,0,44.065,20.002,44.065,51.178C652.676,217.806,652.479,219.349,652.479,220.702
		 M607.451,182.978c-12.125,0-20.012,10.578-19.048,32.14l36.181-5.775C624.584,191.061,618.61,182.978,607.451,182.978"/>
	<path clip-path="url(#SVGID_2_)" fill="#FFFFFF" d="M190.418,272.413c-5.882,0-9.095-1.076-11.24-1.965v28.742h-23.215V180.107
		c6.785-4.109,16.611-7.138,29.461-7.138c24.818,0,39.634,16.418,39.634,49.446C225.058,253.304,210.776,272.413,190.418,272.413
		 M185.604,189.563c-2.863,0-5.003,0.542-6.609,1.256v64.271c1.606,0.359,3.572,0.895,5.716,0.895
		c13.748,0,17.14-17.492,17.14-33.029C201.851,205.989,198.275,189.563,185.604,189.563"/>
	<path clip-path="url(#SVGID_2_)" fill="#FFFFFF" d="M322.361,270.983v-68.028c0-8.031-3.75-13.209-10.898-13.209
		c-4.272,0-7.493,1.431-10.163,4.284v76.953h-23.399v-67.848c0-7.857-3.926-13.389-11.779-13.389c-4.456,0-6.787,0.713-9.471,1.785
		v79.452h-23.023v-90.876c7.502-4.289,17.14-7.138,32.669-7.138c13.932,0,21.605,4.101,25.886,9.279
		c5.541-5.537,13.218-9.279,25.894-9.279c16.247,0,27.495,10.886,27.495,29.986v68.028H322.361z"/>
</g>
</svg>
