<?xml version="1.0" encoding="utf-8"?>
<!-- Generator: Adobe Illustrator 15.0.2, SVG Export Plug-In . SVG Version: 6.00 Build 0)  -->
<!DOCTYPE svg PUBLIC "-//W3C//DTD SVG 1.1//EN" "http://www.w3.org/Graphics/SVG/1.1/DTD/svg11.dtd">
<svg version="1.1" id="Ebene_1" xmlns="http://www.w3.org/2000/svg" xmlns:xlink="http://www.w3.org/1999/xlink" viewBox="0 0 573.889 127.559" enable-background="new 0 0 573.889 127.559"
	 xml:space="preserve">
<g>
	<g>
		<path fill="#00AFCB" d="M148.078,114.549c-9.052,0-19.528-2.261-24.771-4.762l2.623-11.789c7.381,2.263,14.523,3.69,22.383,3.69
			c10.837,0,12.624-2.26,12.624-9.881c0-8.811-0.239-9.527-14.527-12.623c-19.171-4.287-21.789-7.979-21.789-24.767
			c0-14.408,6.548-21.553,26.669-21.553c6.909,0,15.241,0.834,23.101,2.619l-1.666,12.623c-6.551-1.429-14.291-2.382-21.197-2.382
			c-10.121,0-11.908,2.143-11.908,9.049c0,9.053,0.242,9.289,13.935,12.622c21.311,5.121,22.384,8.574,22.384,24.412
			C175.939,106.808,171.533,114.549,148.078,114.549z"/>
		<path fill="#00AFCB" d="M249.048,90.14c0,13.217-7.617,24.409-30.004,24.409c-22.386,0-30.006-11.192-30.006-24.409V57.275
			c0-13.215,7.62-24.41,30.006-24.41c22.388,0,30.004,11.194,30.004,24.41V90.14z M204.04,89.307
			c0,7.501,3.813,12.022,15.004,12.022c11.192,0,15.003-4.521,15.003-12.022V58.108c0-7.5-3.811-12.025-15.003-12.025
			c-11.192,0-15.004,4.524-15.004,12.025V89.307z"/>
		<path fill="#00AFCB" d="M280.126,100.142h32.627v13.218h-47.628V34.056h15.001V100.142z"/>
		<path fill="#00AFCB" d="M361.81,34.056h15.602l-23.697,79.304h-22.148L307.87,34.056h15.6l19.17,66.086L361.81,34.056z"/>
		<path fill="#00AFCB" d="M402.892,113.36h-15.005V34.056h15.005V113.36z"/>
		<path fill="#00AFCB" d="M479.575,90.14c0,13.217-7.618,24.409-30.007,24.409c-22.386,0-30.005-11.192-30.005-24.409V57.275
			c0-13.215,7.619-24.41,30.005-24.41c22.389,0,30.007,11.194,30.007,24.41V90.14z M434.563,89.307
			c0,7.501,3.813,12.022,15.005,12.022s15.003-4.521,15.003-12.022V58.108c0-7.5-3.811-12.025-15.003-12.025
			s-15.005,4.524-15.005,12.025V89.307z"/>
		<path fill="#00AFCB" d="M510.294,53.228v60.132H495.65V34.056h20.001l30.127,60.253V34.056h14.646v79.304h-20.003L510.294,53.228z
			"/>
	</g>
	<g>
		<polygon fill="#00AFCB" points="73.701,113.385 34.016,113.385 34.016,93.542 93.543,93.542 		"/>
		<polygon fill="#00AFCB" points="93.543,93.542 93.543,53.857 73.702,53.857 73.702,113.384 		"/>
		<polygon fill="#9D9D9C" points="34.016,34.015 73.701,34.015 73.701,53.857 14.173,53.857 		"/>
		<polygon fill="#9D9D9C" points="14.173,53.857 14.173,93.542 34.015,93.542 34.015,34.015 		"/>
		<rect x="73.701" y="14.173" fill="#00AFCB" width="19.842" height="19.842"/>
	</g>
</g>
</svg>
