<?xml version="1.0" encoding="utf-8"?>
<!-- Generator: Adobe Illustrator 15.0.2, SVG Export Plug-In . SVG Version: 6.00 Build 0)  -->
<!DOCTYPE svg PUBLIC "-//W3C//DTD SVG 1.1//EN" "http://www.w3.org/Graphics/SVG/1.1/DTD/svg11.dtd">
<svg version="1.1" id="Layer_1" xmlns="http://www.w3.org/2000/svg" xmlns:xlink="http://www.w3.org/1999/xlink" viewBox="0 0 283.185 54" enable-background="new 0 0 283.185 54" xml:space="preserve">
<g>
	<path fill="#0D9A7F" d="M37.125,9.492v22.171c0,2.531-0.566,4.75-1.699,6.657s-2.77,3.367-4.91,4.383s-4.672,1.523-7.594,1.523
		c-4.406,0-7.828-1.129-10.266-3.387S9,35.492,9,31.57V9.492h7.242v20.977c0,2.64,0.531,4.578,1.594,5.813
		c1.063,1.234,2.82,1.852,5.273,1.852c2.375,0,4.098-0.621,5.168-1.863c1.07-1.243,1.605-3.192,1.605-5.848V9.492H37.125z"/>
	<path fill="#0D9A7F" d="M65.742,34.242c0,3.094-1.113,5.532-3.34,7.313s-5.324,2.672-9.293,2.672c-3.656,0-6.891-0.688-9.703-2.063
		v-6.75c2.313,1.031,4.27,1.758,5.871,2.18s3.066,0.633,4.395,0.633c1.594,0,2.816-0.305,3.668-0.914s1.277-1.516,1.277-2.719
		c0-0.672-0.188-1.27-0.563-1.793s-0.926-1.027-1.652-1.512c-0.727-0.484-2.207-1.257-4.441-2.32
		c-2.094-0.984-3.664-1.93-4.711-2.836s-1.883-1.961-2.508-3.164s-0.938-2.609-0.938-4.219c0-3.031,1.027-5.414,3.082-7.148
		S51.781,9,55.406,9c1.781,0,3.48,0.211,5.098,0.633s3.309,1.016,5.074,1.781l-2.344,5.648c-1.828-0.75-3.34-1.273-4.535-1.57
		s-2.371-0.445-3.527-0.445c-1.375,0-2.43,0.32-3.164,0.961s-1.102,1.477-1.102,2.508c0,0.641,0.148,1.199,0.445,1.676
		s0.77,0.938,1.418,1.383s2.184,1.246,4.605,2.402c3.203,1.531,5.398,3.066,6.586,4.605S65.742,32.007,65.742,34.242z"/>
	<path fill="#0D9A7F" d="M91.688,43.758H71.953V9.492h19.734v5.953H79.219v7.523H90.82v5.953H79.219v8.836h12.469V43.758z"/>
	<path fill="#0D9A7F" d="M106.102,30.609v13.148h-7.266V9.492h9.984c4.656,0,8.102,0.848,10.336,2.543s3.352,4.27,3.352,7.723
		c0,2.016-0.555,3.809-1.664,5.379s-2.68,2.801-4.711,3.691c5.156,7.703,8.516,12.68,10.078,14.93h-8.063l-8.18-13.148H106.102z
		 M106.102,24.703h2.344c2.297,0,3.992-0.383,5.086-1.148s1.641-1.969,1.641-3.609c0-1.625-0.559-2.781-1.676-3.469
		s-2.848-1.031-5.191-1.031h-2.203V24.703z"/>
	<path fill="#0D9A7F" d="M130.523,9.492h10.664c4.859,0,8.387,0.691,10.582,2.074s3.293,3.582,3.293,6.598
		c0,2.047-0.48,3.727-1.441,5.039s-2.238,2.102-3.832,2.367v0.234c2.172,0.484,3.738,1.391,4.699,2.719s1.441,3.093,1.441,5.296
		c0,3.125-1.129,5.563-3.387,7.313s-5.324,2.625-9.199,2.625h-12.82V9.492z M137.789,23.063h4.219c1.969,0,3.395-0.305,4.277-0.914
		s1.324-1.617,1.324-3.023c0-1.313-0.48-2.254-1.441-2.824s-2.48-0.855-4.559-0.855h-3.82V23.063z M137.789,28.828v8.93h4.734
		c2,0,3.477-0.383,4.43-1.148s1.43-1.938,1.43-3.516c0-2.843-2.031-4.265-6.094-4.265H137.789z"/>
	<path fill="#0D9A7F" d="M170.039,30.609v13.148h-7.266V9.492h9.984c4.656,0,8.102,0.848,10.336,2.543s3.352,4.27,3.352,7.723
		c0,2.016-0.555,3.809-1.664,5.379s-2.68,2.801-4.711,3.691c5.156,7.703,8.516,12.68,10.078,14.93h-8.063l-8.18-13.148H170.039z
		 M170.039,24.703h2.344c2.297,0,3.992-0.383,5.086-1.148s1.641-1.969,1.641-3.609c0-1.625-0.559-2.781-1.676-3.469
		s-2.848-1.031-5.191-1.031h-2.203V24.703z"/>
	<path fill="#0D9A7F" d="M215.438,43.758l-2.484-8.156h-12.492l-2.484,8.156h-7.828l12.094-34.406h8.883l12.141,34.406H215.438z
		 M211.219,29.508c-2.297-7.391-3.59-11.57-3.879-12.539s-0.496-1.734-0.621-2.297c-0.516,2-1.992,6.945-4.43,14.836H211.219z"/>
	<path fill="#0D9A7F" d="M227.578,43.758V9.492h7.266v34.266H227.578z"/>
	<path fill="#0D9A7F" d="M273.867,43.758h-9.234l-14.906-25.922h-0.211c0.297,4.578,0.445,7.844,0.445,9.797v16.125h-6.492V9.492
		h9.164l14.883,25.664h0.164c-0.234-4.453-0.352-7.601-0.352-9.445V9.492h6.539V43.758z"/>
</g>
</svg>
